<svg width="341" height="268" viewBox="0 0 341 268" fill="none" xmlns="http://www.w3.org/2000/svg">
<path d="M12.5384 13.3084C12.568 13.3084 12.5829 13.3528 12.5829 13.4417C12.5829 13.5305 12.568 13.5749 12.5384 13.5749C12.2271 13.5749 11.8788 13.5676 11.4935 13.5527C11.1229 13.5379 10.7375 13.5305 10.3373 13.5305C9.9668 13.5305 9.60366 13.5379 9.24793 13.5527C8.89221 13.5676 8.57354 13.5749 8.29192 13.5749C8.26228 13.5749 8.24745 13.5305 8.24745 13.4417C8.24745 13.3528 8.26228 13.3084 8.29192 13.3084C8.70694 13.3084 8.97373 13.2121 9.09231 13.0196C9.21088 12.827 9.27017 12.4124 9.27017 11.7755V6.7994C9.27017 6.35511 9.26276 6.0441 9.24793 5.86638C9.23311 5.67385 9.17383 5.56277 9.07007 5.53316C8.98114 5.48873 8.82551 5.46651 8.60318 5.46651H6.04639C5.82406 5.46651 5.66103 5.48873 5.55727 5.53316C5.46834 5.57759 5.40904 5.69606 5.37941 5.88859C5.36458 6.06631 5.35717 6.38472 5.35717 6.84383V11.7755C5.35717 12.4124 5.40904 12.827 5.5128 13.0196C5.63137 13.2121 5.89076 13.3084 6.29096 13.3084C6.33542 13.3084 6.35765 13.3528 6.35765 13.4417C6.35765 13.5305 6.33542 13.5749 6.29096 13.5749C6.02416 13.5749 5.72031 13.5676 5.37941 13.5527C5.03851 13.5379 4.69759 13.5305 4.35669 13.5305C3.94167 13.5305 3.53407 13.5379 3.13388 13.5527C2.74851 13.5676 2.39279 13.5749 2.0667 13.5749C2.02223 13.5749 2 13.5305 2 13.4417C2 13.3528 2.02223 13.3084 2.0667 13.3084C2.58546 13.3084 2.91896 13.2121 3.06718 13.0196C3.2154 12.827 3.28951 12.4124 3.28951 11.7755V6.7994C3.28951 6.14777 3.2154 5.73309 3.06718 5.55537C2.91896 5.36284 2.59288 5.26658 2.08893 5.26658C2.04447 5.26658 2.02223 5.22215 2.02223 5.13329C2.02223 5.04443 2.04447 5 2.08893 5H12.5384C12.568 5 12.5829 5.04443 12.5829 5.13329C12.5829 5.22215 12.568 5.26658 12.5384 5.26658C12.0345 5.26658 11.7084 5.37025 11.5602 5.57759C11.4119 5.78492 11.3378 6.207 11.3378 6.84383V11.7755C11.3378 12.4124 11.4119 12.827 11.5602 13.0196C11.7084 13.2121 12.0345 13.3084 12.5384 13.3084ZM16.1881 9.55405V9.02089H22.1687V9.55405H16.1881ZM15.1876 11.7755V6.7994C15.1876 6.14777 15.1135 5.73309 14.9653 5.55537C14.817 5.36284 14.491 5.26658 13.987 5.26658C13.9426 5.26658 13.9203 5.22215 13.9203 5.13329C13.9203 5.04443 13.9426 5 13.987 5C14.2983 5 14.6466 5.0074 15.032 5.02221C15.4322 5.03703 15.8397 5.04443 16.2548 5.04443C16.655 5.04443 17.0478 5.03703 17.4331 5.02221C17.8185 5.0074 18.1595 5 18.4558 5C18.4854 5 18.5003 5.04443 18.5003 5.13329C18.5003 5.22215 18.4854 5.26658 18.4558 5.26658C17.9519 5.26658 17.6259 5.37025 17.4776 5.57759C17.3293 5.78492 17.2553 6.207 17.2553 6.84383V11.7755C17.2553 12.4124 17.3293 12.827 17.4776 13.0196C17.6259 13.2121 17.9519 13.3084 18.4558 13.3084C18.4854 13.3084 18.5003 13.3528 18.5003 13.4417C18.5003 13.5305 18.4854 13.5749 18.4558 13.5749C18.1446 13.5749 17.7962 13.5676 17.4109 13.5527C17.0403 13.5379 16.655 13.5305 16.2548 13.5305C15.8397 13.5305 15.4322 13.5379 15.032 13.5527C14.6466 13.5676 14.2909 13.5749 13.9648 13.5749C13.9203 13.5749 13.8981 13.5305 13.8981 13.4417C13.8981 13.3528 13.9203 13.3084 13.9648 13.3084C14.4835 13.3084 14.817 13.2121 14.9653 13.0196C15.1135 12.827 15.1876 12.4124 15.1876 11.7755ZM21.1683 11.7755V6.7994C21.1683 6.14777 21.0942 5.73309 20.9459 5.55537C20.7977 5.36284 20.4717 5.26658 19.9677 5.26658C19.9232 5.26658 19.901 5.22215 19.901 5.13329C19.901 5.04443 19.9232 5 19.9677 5C20.2789 5 20.6273 5.0074 21.0126 5.02221C21.4128 5.03703 21.8204 5.04443 22.2354 5.04443C22.6356 5.04443 23.0285 5.03703 23.4138 5.02221C23.7991 5.0074 24.1401 5 24.4365 5C24.4661 5 24.481 5.04443 24.481 5.13329C24.481 5.22215 24.4661 5.26658 24.4365 5.26658C23.9325 5.26658 23.6065 5.37025 23.4583 5.57759C23.31 5.78492 23.2359 6.207 23.2359 6.84383V11.7755C23.2359 12.4124 23.31 12.827 23.4583 13.0196C23.6065 13.2121 23.9325 13.3084 24.4365 13.3084C24.4661 13.3084 24.481 13.3528 24.481 13.4417C24.481 13.5305 24.4661 13.5749 24.4365 13.5749C24.1252 13.5749 23.7769 13.5676 23.3916 13.5527C23.021 13.5379 22.6356 13.5305 22.2354 13.5305C21.8204 13.5305 21.4128 13.5379 21.0126 13.5527C20.6124 13.5676 20.2567 13.5749 19.9454 13.5749C19.901 13.5749 19.8787 13.5305 19.8787 13.4417C19.8787 13.3528 19.901 13.3084 19.9454 13.3084C20.4642 13.3084 20.7977 13.2121 20.9459 13.0196C21.0942 12.827 21.1683 12.4124 21.1683 11.7755Z" fill="black"/>
<path d="M56.7766 5.55537C57.1323 5.55537 57.5252 5.54797 57.955 5.53316C58.3996 5.50354 58.8072 5.48873 59.1778 5.48873C60.2005 5.48873 60.9786 5.62942 61.5122 5.91081C62.0607 6.1922 62.3348 6.61429 62.3348 7.17706C62.3348 7.99165 61.5938 8.79139 60.1116 9.57627L59.8448 9.39855C59.9188 9.19125 59.9782 8.96161 60.0226 8.70989C60.0671 8.44331 60.0893 8.14715 60.0893 7.82129C60.0893 7.12523 59.9708 6.6365 59.7336 6.35511C59.5113 6.07372 59.1482 5.93303 58.6442 5.93303C58.3033 5.93303 58.0735 6.02188 57.955 6.1996C57.8364 6.37732 57.7771 6.76979 57.7771 7.37699V12.3087C57.7771 12.7678 57.866 13.1158 58.0439 13.3528C58.2218 13.5749 58.5848 13.686 59.1333 13.686C59.7707 13.686 60.2376 13.5379 60.534 13.2417C60.8304 12.9307 60.9786 12.4716 60.9786 11.8644C60.9786 11.2572 60.8156 10.7537 60.4895 10.3538C60.1783 9.95392 59.6447 9.75398 58.8887 9.75398H56.8655L56.8433 9.3319H59.6669C62.0681 9.3319 63.2686 10.0206 63.2686 11.3979C63.2686 12.1976 62.9203 12.8567 62.2237 13.375C61.5271 13.8933 60.6229 14.1525 59.5113 14.1525C59.1851 14.1525 58.748 14.1377 58.1995 14.1081C57.6659 14.0785 57.1917 14.0637 56.7766 14.0637C56.3616 14.0637 55.954 14.071 55.5538 14.0859C55.1685 14.1007 54.8128 14.1081 54.4866 14.1081C54.4422 14.1081 54.4199 14.0637 54.4199 13.9748C54.4199 13.886 54.4422 13.8415 54.4866 13.8415C55.0053 13.8415 55.3388 13.7453 55.4871 13.5527C55.6354 13.3602 55.7094 12.9456 55.7094 12.3087V7.33256C55.7094 6.68093 55.6354 6.26625 55.4871 6.08853C55.3388 5.896 55.0128 5.79974 54.5089 5.79974C54.4644 5.79974 54.4422 5.75531 54.4422 5.66645C54.4422 5.57759 54.4644 5.53316 54.5089 5.53316C54.8201 5.53316 55.1685 5.54056 55.5538 5.55537C55.954 5.55537 56.3616 5.55537 56.7766 5.55537ZM66.2719 14.1081C66.2274 14.1081 66.2052 14.0637 66.2052 13.9748C66.2052 13.886 66.2274 13.8415 66.2719 13.8415C66.7906 13.8415 67.1241 13.7453 67.2724 13.5527C67.4205 13.3602 67.4947 12.9456 67.4947 12.3087V7.37699C67.4947 6.85865 67.4576 6.50321 67.3835 6.31068C67.3093 6.11814 67.1463 6.02188 66.8944 6.02188C66.4053 6.02188 65.9976 6.207 65.6716 6.57726C65.3455 6.9327 65.0342 7.53985 64.7378 8.39888C64.7229 8.44331 64.6711 8.46552 64.5822 8.46552C64.508 8.46552 64.471 8.44331 64.471 8.39888C64.471 8.19158 64.471 7.88058 64.471 7.46585C64.471 7.05117 64.4635 6.62169 64.4488 6.17739C64.4488 5.73309 64.4488 5.37765 64.4488 5.11108C64.4488 5.03703 64.4932 5 64.5822 5C64.6711 5 64.7156 5.03703 64.7156 5.11108C64.7156 5.30361 65.012 5.42948 65.6049 5.48873C66.2125 5.53316 67.213 5.55537 68.6063 5.55537C69.4512 5.55537 70.1478 5.54797 70.6962 5.53316C71.2446 5.50354 71.6523 5.45911 71.919 5.39987C72.1858 5.34062 72.3192 5.24436 72.3192 5.11108C72.3192 5.03703 72.3637 5 72.4526 5C72.5416 5 72.586 5.03703 72.586 5.11108C72.586 5.37765 72.586 5.73309 72.586 6.17739C72.586 6.62169 72.5785 7.05117 72.5638 7.46585C72.5638 7.88058 72.5638 8.19158 72.5638 8.39888C72.5638 8.44331 72.5193 8.46552 72.4304 8.46552C72.3562 8.46552 72.3117 8.44331 72.297 8.39888C72.0153 7.53985 71.7041 6.9327 71.3632 6.57726C71.0371 6.207 70.6369 6.02188 70.1626 6.02188C69.9254 6.02188 69.7624 6.11814 69.6735 6.31068C69.5993 6.50321 69.5624 6.85865 69.5624 7.37699V12.3087C69.5624 12.9456 69.6364 13.3602 69.7847 13.5527C69.9328 13.7453 70.2589 13.8415 70.7629 13.8415C70.8074 13.8415 70.8296 13.886 70.8296 13.9748C70.8296 14.0637 70.8074 14.1081 70.7629 14.1081C70.4517 14.1081 70.1033 14.1007 69.718 14.0859C69.3474 14.071 68.9621 14.0637 68.5619 14.0637C68.1468 14.0637 67.7393 14.071 67.3391 14.0859C66.9536 14.1007 66.5979 14.1081 66.2719 14.1081Z" fill="black"/>
<path d="M110.859 14.1303C109.836 14.1303 108.992 13.9155 108.325 13.4861C107.658 13.0418 107.161 12.4791 106.835 11.7978C106.524 11.1164 106.368 10.4278 106.368 9.73177C106.368 8.99132 106.524 8.33223 106.835 7.75464C107.146 7.17706 107.554 6.69573 108.058 6.31068C108.576 5.91081 109.147 5.6072 109.77 5.39987C110.392 5.19253 111.007 5.08886 111.615 5.08886C112.045 5.08886 112.475 5.1555 112.905 5.28879C113.334 5.40727 113.69 5.5924 113.972 5.84417C114.253 6.08113 114.394 6.38472 114.394 6.75498C114.394 7.0067 114.29 7.2437 114.083 7.46585C113.875 7.67314 113.572 7.77686 113.171 7.77686C112.801 7.77686 112.512 7.68064 112.304 7.48807C112.097 7.29549 111.934 7.01419 111.815 6.6439C111.711 6.28846 111.593 6.02188 111.459 5.84417C111.341 5.65163 111.104 5.55537 110.748 5.55537C110.111 5.55537 109.599 5.87378 109.214 6.51061C108.843 7.14748 108.658 7.97679 108.658 8.99868C108.658 9.73913 108.769 10.4204 108.992 11.0424C109.214 11.6496 109.577 12.1383 110.081 12.5086C110.585 12.8641 111.259 13.0418 112.104 13.0418C112.549 13.0418 112.919 12.99 113.216 12.8863C113.527 12.7826 113.868 12.6419 114.239 12.4642C114.268 12.4346 114.305 12.4493 114.35 12.5086C114.409 12.5679 114.424 12.6123 114.394 12.6419C113.875 13.1158 113.342 13.4861 112.793 13.7527C112.245 14.0044 111.6 14.1303 110.859 14.1303ZM115.524 19.9728C115.479 19.9728 115.457 19.9284 115.457 19.8395C115.457 19.7507 115.479 19.7062 115.524 19.7062C116.042 19.7062 116.376 19.61 116.524 19.4175C116.687 19.2249 116.769 18.8103 116.769 18.1734V7.0882C116.769 6.43657 116.65 6.02188 116.413 5.84417C116.191 5.65163 115.82 5.55537 115.301 5.55537C115.272 5.55537 115.257 5.51094 115.257 5.42208C115.257 5.33322 115.272 5.28879 115.301 5.28879C115.524 5.28879 115.82 5.28879 116.191 5.28879C116.561 5.28879 116.939 5.28879 117.325 5.28879C117.725 5.28879 118.066 5.28879 118.347 5.28879C118.555 5.28879 118.688 5.33322 118.747 5.42208C118.807 5.49613 118.836 5.62202 118.836 5.79974V18.1734C118.836 18.5881 118.881 18.9065 118.97 19.1287C119.073 19.3508 119.266 19.499 119.548 19.573C119.829 19.6618 120.252 19.7062 120.815 19.7062C120.86 19.7062 120.882 19.7507 120.882 19.8395C120.882 19.9284 120.86 19.9728 120.815 19.9728C120.4 19.9728 119.933 19.9655 119.414 19.9506C118.896 19.9358 118.347 19.9284 117.769 19.9284C117.354 19.9284 116.947 19.9358 116.546 19.9506C116.161 19.9655 115.82 19.9728 115.524 19.9728ZM120.748 14.1525C120.17 14.1525 119.674 14.1081 119.259 14.0192C118.859 13.9304 118.377 13.7897 117.814 13.5972L118.592 12.1976C118.918 12.5975 119.266 12.9307 119.637 13.1973C120.022 13.4639 120.533 13.5972 121.171 13.5972C121.867 13.5972 122.416 13.2935 122.816 12.6863C123.216 12.0792 123.416 11.1091 123.416 9.7762C123.416 8.59145 123.142 7.71022 122.594 7.13263C122.045 6.54023 121.401 6.24403 120.66 6.24403C120.111 6.24403 119.637 6.38472 119.237 6.66612C118.836 6.94755 118.444 7.30299 118.058 7.73243L117.836 7.46585C118.592 6.59207 119.311 5.96264 119.993 5.57759C120.689 5.19253 121.401 5 122.127 5C122.749 5 123.327 5.1629 123.861 5.48873C124.395 5.79974 124.824 6.25885 125.151 6.86605C125.491 7.47321 125.662 8.2138 125.662 9.08754C125.662 10.0354 125.506 10.8352 125.195 11.4867C124.898 12.1383 124.506 12.6641 124.017 13.064C123.528 13.449 122.994 13.7231 122.416 13.886C121.853 14.0637 121.297 14.1525 120.748 14.1525Z" fill="black"/>
<path d="M164.272 12.3087V7.33256C164.272 6.68093 164.22 6.26625 164.116 6.08853C164.027 5.896 163.812 5.79974 163.471 5.79974C163.427 5.79974 163.405 5.75531 163.405 5.66645C163.405 5.57759 163.427 5.53316 163.471 5.53316C163.723 5.53316 164.012 5.54056 164.338 5.55537C164.679 5.57019 165.012 5.57759 165.339 5.57759C165.739 5.57759 166.132 5.57019 166.517 5.55537C166.902 5.54056 167.244 5.53316 167.54 5.53316C167.584 5.53316 167.607 5.57759 167.607 5.66645C167.607 5.75531 167.584 5.79974 167.54 5.79974C167.036 5.79974 166.71 5.90341 166.562 6.11074C166.428 6.31808 166.362 6.74016 166.362 7.37699V12.3087C166.362 12.9456 166.428 13.3602 166.562 13.5527C166.71 13.7453 167.036 13.8415 167.54 13.8415C167.584 13.8415 167.607 13.886 167.607 13.9748C167.607 14.0637 167.584 14.1081 167.54 14.1081C167.229 14.1081 166.88 14.1007 166.495 14.0859C166.124 14.071 165.739 14.0637 165.339 14.0637C164.923 14.0637 164.516 14.071 164.116 14.0859C163.716 14.1007 163.36 14.1081 163.049 14.1081C163.02 14.1081 163.004 14.0637 163.004 13.9748C163.004 13.886 163.02 13.8415 163.049 13.8415C163.567 13.8415 163.901 13.7453 164.049 13.5527C164.198 13.3602 164.272 12.9456 164.272 12.3087ZM161.226 7.37699C161.226 7.49543 161.226 7.6065 161.226 7.71022C161.226 7.79908 161.226 7.88793 161.226 7.97679C161.226 8.64324 161.33 9.12461 161.537 9.42076C161.759 9.7022 162.108 9.84284 162.582 9.84284C163.086 9.84284 163.487 9.79841 163.783 9.70955C164.094 9.60584 164.39 9.48005 164.672 9.3319L164.761 9.55405C164.183 10.0576 163.612 10.4131 163.049 10.6204C162.486 10.8277 161.982 10.9314 161.537 10.9314C160.81 10.9314 160.232 10.7241 159.803 10.3094C159.387 9.89463 159.18 9.28011 159.18 8.46552V7.33256C159.18 6.68093 159.136 6.26625 159.047 6.08853C158.973 5.896 158.787 5.79974 158.491 5.79974C158.462 5.79974 158.447 5.75531 158.447 5.66645C158.447 5.57759 158.462 5.53316 158.491 5.53316C158.743 5.53316 159.018 5.54056 159.314 5.55537C159.61 5.57019 159.921 5.57759 160.248 5.57759C160.574 5.57759 160.892 5.57019 161.204 5.55537C161.53 5.54056 161.819 5.53316 162.071 5.53316C162.1 5.53316 162.115 5.57759 162.115 5.66645C162.115 5.75531 162.1 5.79974 162.071 5.79974C161.715 5.79974 161.486 5.90341 161.381 6.11074C161.277 6.31808 161.226 6.74016 161.226 7.37699ZM170.658 14.1081C170.614 14.1081 170.591 14.0637 170.591 13.9748C170.591 13.886 170.614 13.8415 170.658 13.8415C171.176 13.8415 171.51 13.7453 171.659 13.5527C171.806 13.3602 171.881 12.9456 171.881 12.3087V7.37699C171.881 6.85865 171.843 6.50321 171.77 6.31068C171.695 6.11814 171.532 6.02188 171.281 6.02188C170.791 6.02188 170.383 6.207 170.058 6.57726C169.731 6.9327 169.42 7.53985 169.124 8.39888C169.109 8.44331 169.057 8.46552 168.968 8.46552C168.893 8.46552 168.857 8.44331 168.857 8.39888C168.857 8.19158 168.857 7.88058 168.857 7.46585C168.857 7.05117 168.849 6.62169 168.835 6.17739C168.835 5.73309 168.835 5.37765 168.835 5.11108C168.835 5.03703 168.879 5 168.968 5C169.057 5 169.102 5.03703 169.102 5.11108C169.102 5.30361 169.398 5.42948 169.991 5.48873C170.598 5.53316 171.599 5.55537 172.993 5.55537C173.837 5.55537 174.534 5.54797 175.082 5.53316C175.63 5.50354 176.038 5.45911 176.305 5.39987C176.572 5.34062 176.705 5.24436 176.705 5.11108C176.705 5.03703 176.75 5 176.839 5C176.928 5 176.972 5.03703 176.972 5.11108C176.972 5.37765 176.972 5.73309 176.972 6.17739C176.972 6.62169 176.964 7.05117 176.95 7.46585C176.95 7.88058 176.95 8.19158 176.95 8.39888C176.95 8.44331 176.906 8.46552 176.817 8.46552C176.742 8.46552 176.697 8.44331 176.683 8.39888C176.401 7.53985 176.09 6.9327 175.749 6.57726C175.423 6.207 175.023 6.02188 174.549 6.02188C174.311 6.02188 174.149 6.11814 174.06 6.31068C173.985 6.50321 173.949 6.85865 173.949 7.37699V12.3087C173.949 12.9456 174.022 13.3602 174.171 13.5527C174.318 13.7453 174.645 13.8415 175.149 13.8415C175.194 13.8415 175.216 13.886 175.216 13.9748C175.216 14.0637 175.194 14.1081 175.149 14.1081C174.838 14.1081 174.489 14.1007 174.104 14.0859C173.733 14.071 173.348 14.0637 172.948 14.0637C172.533 14.0637 172.125 14.071 171.725 14.0859C171.339 14.1007 170.983 14.1081 170.658 14.1081Z" fill="black"/>
<path d="M221.009 13.8415C221.038 13.8415 221.054 13.886 221.054 13.9748C221.054 14.0637 221.038 14.1081 221.009 14.1081C220.698 14.1081 220.349 14.1007 219.964 14.0859C219.593 14.071 219.208 14.0637 218.808 14.0637C218.437 14.0637 218.074 14.071 217.719 14.0859C217.363 14.1007 217.045 14.1081 216.763 14.1081C216.733 14.1081 216.718 14.0637 216.718 13.9748C216.718 13.886 216.733 13.8415 216.763 13.8415C217.178 13.8415 217.445 13.7453 217.563 13.5527C217.681 13.3602 217.741 12.9456 217.741 12.3087V7.33256C217.741 6.88826 217.734 6.57726 217.719 6.39954C217.703 6.207 217.645 6.09593 217.541 6.06631C217.452 6.02189 217.296 5.99967 217.074 5.99967H214.517C214.295 5.99967 214.132 6.02189 214.028 6.06631C213.939 6.11074 213.879 6.22922 213.85 6.42175C213.835 6.59947 213.828 6.91788 213.828 7.37699V12.3087C213.828 12.9456 213.879 13.3602 213.984 13.5527C214.102 13.7453 214.361 13.8415 214.762 13.8415C214.806 13.8415 214.828 13.886 214.828 13.9748C214.828 14.0637 214.806 14.1081 214.762 14.1081C214.495 14.1081 214.191 14.1007 213.85 14.0859C213.51 14.071 213.168 14.0637 212.827 14.0637C212.412 14.0637 212.005 14.071 211.605 14.0859C211.22 14.1007 210.864 14.1081 210.537 14.1081C210.493 14.1081 210.471 14.0637 210.471 13.9748C210.471 13.886 210.493 13.8415 210.537 13.8415C211.056 13.8415 211.389 13.7453 211.538 13.5527C211.687 13.3602 211.76 12.9456 211.76 12.3087V7.33256C211.76 6.68093 211.687 6.26625 211.538 6.08853C211.389 5.896 211.064 5.79974 210.56 5.79974C210.515 5.79974 210.493 5.75531 210.493 5.66645C210.493 5.57759 210.515 5.53316 210.56 5.53316H221.009C221.038 5.53316 221.054 5.57759 221.054 5.66645C221.054 5.75531 221.038 5.79974 221.009 5.79974C220.505 5.79974 220.18 5.90341 220.031 6.11074C219.882 6.31808 219.809 6.74016 219.809 7.37699V12.3087C219.809 12.9456 219.882 13.3602 220.031 13.5527C220.18 13.7453 220.505 13.8415 221.009 13.8415ZM224.104 14.1081C224.059 14.1081 224.037 14.0637 224.037 13.9748C224.037 13.886 224.059 13.8415 224.104 13.8415C224.622 13.8415 224.955 13.7453 225.104 13.5527C225.251 13.3602 225.326 12.9456 225.326 12.3087V7.37699C225.326 6.85865 225.289 6.50321 225.215 6.31068C225.14 6.11814 224.978 6.02188 224.726 6.02188C224.237 6.02188 223.829 6.207 223.503 6.57726C223.177 6.9327 222.866 7.53985 222.57 8.39888C222.554 8.44331 222.503 8.46552 222.414 8.46552C222.339 8.46552 222.303 8.44331 222.303 8.39888C222.303 8.19158 222.303 7.88058 222.303 7.46585C222.303 7.05117 222.294 6.62169 222.281 6.17739C222.281 5.73309 222.281 5.37765 222.281 5.11108C222.281 5.03703 222.325 5 222.414 5C222.503 5 222.547 5.03703 222.547 5.11108C222.547 5.30361 222.843 5.42948 223.437 5.48873C224.044 5.53316 225.044 5.55537 226.438 5.55537C227.283 5.55537 227.979 5.54797 228.528 5.53316C229.075 5.50354 229.484 5.45911 229.751 5.39987C230.018 5.34062 230.151 5.24436 230.151 5.11108C230.151 5.03703 230.195 5 230.284 5C230.373 5 230.418 5.03703 230.418 5.11108C230.418 5.37765 230.418 5.73309 230.418 6.17739C230.418 6.62169 230.409 7.05117 230.396 7.46585C230.396 7.88058 230.396 8.19158 230.396 8.39888C230.396 8.44331 230.351 8.46552 230.262 8.46552C230.187 8.46552 230.143 8.44331 230.129 8.39888C229.847 7.53985 229.535 6.9327 229.195 6.57726C228.868 6.207 228.468 6.02188 227.994 6.02188C227.757 6.02188 227.594 6.11814 227.505 6.31068C227.43 6.50321 227.394 6.85865 227.394 7.37699V12.3087C227.394 12.9456 227.468 13.3602 227.616 13.5527C227.764 13.7453 228.09 13.8415 228.595 13.8415C228.639 13.8415 228.661 13.886 228.661 13.9748C228.661 14.0637 228.639 14.1081 228.595 14.1081C228.283 14.1081 227.935 14.1007 227.55 14.0859C227.179 14.071 226.794 14.0637 226.394 14.0637C225.978 14.0637 225.571 14.071 225.171 14.0859C224.785 14.1007 224.429 14.1081 224.104 14.1081Z" fill="black"/>
<path d="M267.367 16.4223C266.344 16.4223 265.499 16.2076 264.832 15.7781C264.165 15.3338 263.669 14.7711 263.342 14.0898C263.031 13.4085 262.875 12.7198 262.875 12.0238C262.875 11.2834 263.031 10.6243 263.342 10.0467C263.654 9.4691 264.061 8.9878 264.565 8.6027C265.084 8.2028 265.655 7.8992 266.277 7.6919C266.9 7.4846 267.515 7.3809 268.122 7.3809C268.552 7.3809 268.983 7.4475 269.412 7.5808C269.841 7.6993 270.197 7.8844 270.479 8.1362C270.761 8.3732 270.902 8.6768 270.902 9.047C270.902 9.2987 270.797 9.5357 270.59 9.7579C270.383 9.9652 270.079 10.0689 269.679 10.0689C269.308 10.0689 269.019 9.9727 268.812 9.7801C268.605 9.5875 268.441 9.3062 268.323 8.9359C268.218 8.5805 268.1 8.3139 267.967 8.1362C267.849 7.9437 267.611 7.8474 267.255 7.8474C266.618 7.8474 266.106 8.1658 265.721 8.8026C265.35 9.4395 265.165 10.2688 265.165 11.2907C265.165 12.0312 265.277 12.7125 265.499 13.3345C265.721 13.9416 266.084 14.4304 266.588 14.8007C267.093 15.1561 267.767 15.3338 268.612 15.3338C269.056 15.3338 269.427 15.282 269.723 15.1783C270.035 15.0746 270.375 14.934 270.746 14.7562C270.775 14.7267 270.813 14.7414 270.857 14.8007C270.917 14.86 270.931 14.9044 270.902 14.934C270.383 15.4078 269.85 15.7781 269.301 16.0447C268.752 16.2964 268.107 16.4223 267.367 16.4223ZM276.436 16.4446C275.665 16.4446 274.947 16.2668 274.28 15.9114C273.628 15.5411 273.101 14.9635 272.701 14.1786C272.316 13.3938 272.123 12.3792 272.123 11.1352C272.123 9.2543 272.33 7.7289 272.746 6.5589C273.161 5.3742 273.753 4.45593 274.524 3.8043C275.295 3.13785 276.207 2.64913 277.259 2.33812C277.748 2.19001 278.193 2.04192 278.593 1.89382C278.993 1.73092 279.349 1.50877 279.66 1.22737C279.987 0.945978 280.26 0.553528 280.483 0.0499882C280.498 0.00555819 280.542 -0.00926207 280.616 0.00555793C280.69 0.0203679 280.72 0.049988 280.705 0.094418C280.587 0.894148 280.438 1.54578 280.26 2.04932C280.098 2.53805 279.882 2.93052 279.616 3.22671C279.364 3.52291 279.044 3.76727 278.659 3.9598C278.275 4.13752 277.808 4.31524 277.259 4.49296C276.621 4.68549 276.021 4.93726 275.458 5.2483C274.895 5.5593 274.391 5.9888 273.946 6.5367C273.517 7.0847 273.175 7.8104 272.923 8.7138C272.686 9.6024 272.568 10.7353 272.568 12.1127L272.368 11.2241C272.65 10.3206 273.005 9.6172 273.435 9.1137C273.879 8.6101 274.324 8.2547 274.769 8.0473C275.229 7.8252 275.629 7.6919 275.969 7.6475C276.325 7.5882 276.57 7.5586 276.703 7.5586C277.592 7.5586 278.333 7.6919 278.926 7.9585C279.534 8.2102 280.016 8.5509 280.371 8.9804C280.742 9.4098 281.001 9.8763 281.15 10.3799C281.312 10.8686 281.394 11.35 281.394 11.8239C281.394 12.7865 281.157 13.6159 280.683 14.3119C280.223 14.9932 279.616 15.5189 278.86 15.8892C278.119 16.2595 277.31 16.4446 276.436 16.4446ZM277.303 15.9781C277.866 15.9781 278.304 15.6893 278.615 15.1117C278.926 14.5341 279.082 13.6751 279.082 12.5347C279.082 11.5277 278.955 10.6909 278.704 10.0245C278.452 9.3432 278.126 8.8397 277.726 8.5139C277.326 8.1732 276.888 8.0029 276.414 8.0029C275.94 8.0029 275.562 8.1732 275.28 8.5139C275.013 8.8397 274.82 9.2618 274.702 9.7801C274.598 10.2837 274.546 10.8168 274.546 11.3796C274.546 12.2533 274.658 13.0383 274.88 13.7343C275.102 14.4304 275.42 14.9784 275.836 15.3783C276.251 15.7781 276.741 15.9781 277.303 15.9781Z" fill="black"/>
<path d="M317.028 5.22215C317.384 5.22215 317.777 5.21475 318.207 5.19993C318.651 5.17032 319.058 5.1555 319.429 5.1555C320.452 5.1555 321.23 5.29619 321.764 5.57759C322.313 5.85898 322.587 6.28106 322.587 6.84383C322.587 7.65843 321.846 8.45816 320.363 9.24304L320.096 9.06532C320.17 8.85803 320.23 8.62838 320.274 8.37666C320.319 8.11008 320.341 7.81393 320.341 7.48807C320.341 6.792 320.223 6.30328 319.985 6.02188C319.763 5.74049 319.4 5.5998 318.896 5.5998C318.555 5.5998 318.325 5.68866 318.207 5.86638C318.089 6.0441 318.029 6.43657 318.029 7.04377V11.9755C318.029 12.4346 318.118 12.7826 318.296 13.0196C318.473 13.2417 318.836 13.3528 319.385 13.3528C320.023 13.3528 320.49 13.2046 320.786 12.9085C321.082 12.5975 321.23 12.1383 321.23 11.5312C321.23 10.924 321.068 10.4204 320.741 10.0206C320.43 9.62069 319.896 9.42076 319.14 9.42076H317.117L317.095 8.99868H319.919C322.32 8.99868 323.52 9.68734 323.52 11.0647C323.52 11.8644 323.172 12.5235 322.475 13.0418C321.779 13.5601 320.875 13.8193 319.763 13.8193C319.436 13.8193 319 13.8044 318.451 13.7749C317.918 13.7453 317.444 13.7304 317.028 13.7304C316.613 13.7304 316.206 13.7378 315.806 13.7527C315.421 13.7675 315.065 13.7749 314.738 13.7749C314.694 13.7749 314.672 13.7304 314.672 13.6416C314.672 13.5527 314.694 13.5083 314.738 13.5083C315.257 13.5083 315.59 13.4121 315.739 13.2195C315.887 13.0269 315.961 12.6123 315.961 11.9755V6.99934C315.961 6.34771 315.887 5.93302 315.739 5.75531C315.59 5.56277 315.265 5.46651 314.761 5.46651C314.716 5.46651 314.694 5.42208 314.694 5.33322C314.694 5.24436 314.716 5.19993 314.761 5.19993C315.072 5.19993 315.421 5.20733 315.806 5.22215C316.206 5.22215 316.613 5.22215 317.028 5.22215ZM329.347 14.0415C328.324 14.0415 327.479 13.8267 326.812 13.3972C326.145 12.9529 325.649 12.3902 325.323 11.7089C325.011 11.0276 324.856 10.3389 324.856 9.64291C324.856 8.90246 325.011 8.24337 325.323 7.66579C325.634 7.0882 326.042 6.60687 326.545 6.22182C327.065 5.82195 327.635 5.51834 328.257 5.31101C328.88 5.10367 329.495 5 330.103 5C330.533 5 330.963 5.06664 331.392 5.19993C331.823 5.31841 332.179 5.50354 332.459 5.75531C332.741 5.99227 332.882 6.29586 332.882 6.66612C332.882 6.91784 332.779 7.15484 332.571 7.37699C332.363 7.58428 332.059 7.688 331.659 7.688C331.289 7.688 331 7.59178 330.792 7.39921C330.585 7.20663 330.422 6.92534 330.303 6.55504C330.2 6.1996 330.08 5.93302 329.947 5.75531C329.829 5.56277 329.591 5.46651 329.236 5.46651C328.599 5.46651 328.088 5.78492 327.702 6.42175C327.332 7.05862 327.146 7.88793 327.146 8.90982C327.146 9.65027 327.257 10.3316 327.479 10.9536C327.702 11.5607 328.066 12.0495 328.569 12.4198C329.073 12.7752 329.747 12.9529 330.592 12.9529C331.036 12.9529 331.407 12.9011 331.703 12.7974C332.015 12.6937 332.357 12.5531 332.726 12.3753C332.757 12.3458 332.793 12.3605 332.837 12.4198C332.897 12.4791 332.912 12.5235 332.882 12.5531C332.363 13.0269 331.83 13.3972 331.281 13.6638C330.734 13.9155 330.089 14.0415 329.347 14.0415Z" fill="black"/>
<path fill-rule="evenodd" clip-rule="evenodd" d="M215.5 82.035C213.386 78.918 209.7 74 203.533 74C197.302 74 194 79.292 194 84.112C194 90.454 197.474 95.904 201.851 100.38C206.235 104.862 211.618 108.43 215.5 111C219.382 108.43 224.765 104.862 229.149 100.38C233.526 95.904 237 90.454 237 84.112C237 79.292 233.698 74 227.467 74C221.3 74 217.614 78.918 215.5 82.035Z" fill="#1A3A2B"/>
<path d="M262.875 59.4483H267.229V46.7897L267.718 47.2236L263.169 47.7116L262.974 45.987L267.631 45.4446H269.411V59.4483H273.254V61.1295H262.875V59.4483Z" fill="black"/>
<path d="M315.4 61.3682L315.193 59.6543L320.502 53.8946C321.03 53.3232 321.457 52.8352 321.782 52.4302C322.109 52.018 322.343 51.6203 322.488 51.237C322.641 50.8465 322.716 50.4018 322.716 49.9028C322.716 48.8976 322.499 48.1962 322.065 47.7985C321.631 47.4007 320.94 47.2019 319.991 47.2019C319.231 47.2019 318.619 47.2815 318.157 47.4406C317.701 47.5923 317.367 47.8889 317.158 48.33C316.955 48.7639 316.855 49.4074 316.855 50.2608H314.672C314.672 48.5324 315.136 47.2995 316.061 46.5618C316.988 45.8171 318.244 45.4446 319.828 45.4446C320.958 45.4446 321.888 45.6435 322.619 46.0412C323.349 46.4318 323.893 46.9632 324.247 47.6358C324.601 48.301 324.779 49.0495 324.779 49.8812C324.779 50.5754 324.692 51.1828 324.518 51.7035C324.351 52.2169 324.073 52.7302 323.683 53.2437C323.291 53.7571 322.763 54.3645 322.097 55.066L317.397 60.0341L317.191 59.676H324.692V61.3682H315.4Z" fill="black"/>
<path d="M7.11314 101.53C5.94794 101.53 5.01433 101.379 4.31231 101.075C3.61029 100.764 3.07835 100.25 2.71648 99.5346C2.36187 98.8187 2.12303 97.846 2 96.6167H4.08434C4.14224 97.4917 4.27974 98.157 4.49687 98.6126C4.72121 99.0609 5.05414 99.3683 5.4956 99.5346C5.93708 99.6937 6.51606 99.7732 7.23255 99.7732C8.1734 99.7732 8.85009 99.5346 9.26261 99.0573C9.68238 98.5801 9.89226 97.8823 9.89226 96.9638C9.89226 96.1539 9.80179 95.5212 9.62087 95.0656C9.44717 94.6028 9.08891 94.2773 8.54613 94.0893C8.01056 93.8941 7.19999 93.7965 6.1144 93.7965V92.1803C6.95391 92.1803 7.6089 92.126 8.07932 92.0175C8.55698 91.9019 8.90437 91.7319 9.12149 91.5077C9.3386 91.2764 9.47249 90.9943 9.52315 90.6617C9.58105 90.3218 9.61 89.9313 9.61 89.4902C9.61 88.7526 9.42184 88.1741 9.04549 87.7546C8.66916 87.3352 8.01417 87.1255 7.08057 87.1255C6.43646 87.1255 5.90089 87.1943 5.4739 87.3316C5.0469 87.4618 4.72484 87.7438 4.50772 88.1777C4.29784 88.6116 4.19289 89.2769 4.19289 90.1736H2.10855C2.10855 88.843 2.32568 87.8342 2.75992 87.1472C3.20138 86.453 3.79846 85.983 4.55115 85.7371C5.30381 85.4912 6.14334 85.3682 7.06972 85.3682C7.97438 85.3682 8.77048 85.5129 9.45802 85.8022C10.1456 86.0842 10.6811 86.5253 11.0647 87.1255C11.4555 87.7258 11.6509 88.5031 11.6509 89.4577C11.6509 90.188 11.5532 90.8063 11.3578 91.3125C11.1696 91.8187 10.862 92.2127 10.435 92.4949C10.0153 92.7696 9.45078 92.9396 8.74153 93.0046L8.80667 92.907C9.47249 93.0083 10.0406 93.1999 10.511 93.4819C10.9815 93.7639 11.3397 94.1833 11.5858 94.7401C11.8391 95.2898 11.9657 96.0345 11.9657 96.9746C11.9657 97.9726 11.7739 98.8114 11.3904 99.4912C11.014 100.164 10.464 100.674 9.74027 101.021C9.01655 101.361 8.14083 101.53 7.11314 101.53Z" fill="black"/>
<path d="M61.3677 101.053V97.2458H54.4199V95.5427L60.1627 85.3682H62.4316L56.6128 95.9876L56.3631 95.5645H61.3677V91.9741H63.1807V95.5645H65.4821V97.2458H63.1807V101.053H61.3677Z" fill="black"/>
<path d="M111.351 101.292C110.707 101.292 110.106 101.241 109.549 101.14C108.999 101.039 108.467 100.883 107.953 100.674C107.439 100.464 106.911 100.203 106.368 99.8926L106.943 98.233C107.45 98.5655 107.913 98.8258 108.333 99.0138C108.753 99.2019 109.191 99.3357 109.646 99.4152C110.11 99.4948 110.649 99.5345 111.264 99.5345C112.277 99.5345 113.081 99.2779 113.674 98.7645C114.268 98.251 114.564 97.4266 114.564 96.2912C114.564 95.5537 114.459 94.9245 114.249 94.4038C114.047 93.8759 113.725 93.4747 113.283 93.1999C112.849 92.925 112.288 92.7877 111.601 92.7877C111.007 92.7877 110.457 92.9142 109.95 93.1673C109.451 93.4132 109.006 93.6843 108.615 93.9808L107.052 93.33L107.606 85.3682H115.606V87.158H109.353L108.995 92.4406L108.691 92.3321C109.024 91.9705 109.469 91.6885 110.026 91.486C110.591 91.2762 111.202 91.1714 111.861 91.1714C112.911 91.1714 113.786 91.3666 114.488 91.7572C115.19 92.1476 115.719 92.7153 116.073 93.4601C116.435 94.205 116.616 95.1126 116.616 96.1828C116.616 97.3615 116.388 98.3306 115.932 99.0898C115.476 99.8419 114.85 100.399 114.054 100.76C113.265 101.115 112.364 101.292 111.351 101.292Z" fill="black"/>
<path d="M163.603 101.292C162.322 101.292 161.305 101.068 160.552 100.619C159.8 100.164 159.261 99.5599 158.934 98.8078C158.609 98.0557 158.447 97.2277 158.447 96.3239C158.447 95.6151 158.533 94.9391 158.707 94.2954C158.88 93.6518 159.133 92.9901 159.467 92.3103C159.8 91.6306 160.204 90.8786 160.682 90.0541L163.385 85.3682H165.557L161.149 92.831L160.921 92.4514C161.406 92.0971 161.858 91.8548 162.278 91.7246C162.706 91.5945 163.241 91.5294 163.885 91.5294C164.971 91.5294 165.875 91.7283 166.599 92.126C167.33 92.5237 167.88 93.0733 168.249 93.7747C168.618 94.4761 168.803 95.2898 168.803 96.2153C168.803 97.1265 168.632 97.9689 168.293 98.7427C167.96 99.5092 167.413 100.127 166.653 100.598C165.893 101.06 164.876 101.292 163.603 101.292ZM163.689 99.5345C164.536 99.5345 165.18 99.3899 165.622 99.1007C166.071 98.8042 166.374 98.421 166.534 97.9508C166.694 97.4736 166.773 96.9674 166.773 96.4323C166.773 95.9044 166.69 95.4018 166.523 94.9245C166.364 94.4473 166.06 94.0567 165.611 93.7531C165.162 93.4493 164.508 93.2975 163.646 93.2975C162.799 93.2975 162.144 93.4493 161.682 93.7531C161.226 94.0567 160.91 94.4473 160.737 94.9245C160.563 95.4018 160.477 95.9044 160.477 96.4323C160.477 96.9674 160.563 97.4736 160.737 97.9508C160.917 98.421 161.24 98.8042 161.702 99.1007C162.167 99.3899 162.828 99.5345 163.689 99.5345Z" fill="black"/>
<path d="M212.424 101.053L218.026 86.5939L218.341 87.158H210.471V85.3682H220.034V87.0712L214.714 101.053H212.424Z" fill="#FCFCFC"/>
<path d="M268.206 101.53C266.904 101.53 265.862 101.339 265.079 100.956C264.298 100.565 263.733 100.041 263.385 99.3827C263.046 98.7246 262.875 97.9871 262.875 97.1698C262.875 96.1792 263.194 95.3187 263.831 94.5883C264.468 93.8579 265.311 93.2903 266.36 92.8853L266.426 93.1781C265.869 92.9106 265.341 92.6069 264.84 92.267C264.348 91.9271 263.947 91.5149 263.636 91.0305C263.331 90.5387 263.18 89.9457 263.18 89.2515C263.18 88.5791 263.347 87.9499 263.679 87.3642C264.019 86.7712 264.558 86.2903 265.296 85.9215C266.035 85.5527 267.005 85.3682 268.206 85.3682C269.509 85.3682 270.529 85.5563 271.267 85.9323C272.006 86.3083 272.523 86.7893 272.821 87.375C273.123 87.9535 273.276 88.5537 273.276 89.1756C273.276 89.783 273.142 90.3291 272.875 90.8135C272.607 91.2908 272.219 91.7175 271.713 92.0935C271.213 92.4622 270.601 92.7841 269.877 93.0588L270.062 92.7877C270.685 93.0841 271.26 93.424 271.788 93.8074C272.324 94.1906 272.755 94.6535 273.08 95.1958C273.414 95.7309 273.579 96.3853 273.579 97.159C273.579 97.969 273.403 98.7066 273.048 99.3719C272.701 100.03 272.133 100.554 271.343 100.945C270.554 101.335 269.509 101.53 268.206 101.53ZM268.293 99.7732C269.176 99.7732 269.846 99.6575 270.301 99.426C270.764 99.1947 271.079 98.8765 271.246 98.4716C271.42 98.0666 271.506 97.6111 271.506 97.1049C271.506 96.4974 271.325 95.9912 270.964 95.5862C270.608 95.1741 270.139 94.8161 269.552 94.5124C268.966 94.2014 268.332 93.9014 267.653 93.6121L268.499 93.7206C267.342 94.1182 266.458 94.592 265.851 95.1415C265.25 95.6838 264.949 96.3383 264.949 97.1049C264.949 97.6111 265.043 98.0666 265.232 98.4716C265.42 98.8765 265.756 99.1947 266.241 99.426C266.726 99.6575 267.41 99.7732 268.293 99.7732ZM267.924 92.1803C268.438 92.0211 268.948 91.8043 269.455 91.5295C269.968 91.2474 270.396 90.9147 270.736 90.5315C271.075 90.1483 271.246 89.7216 271.246 89.2515C271.246 88.9116 271.181 88.5791 271.05 88.2536C270.928 87.9282 270.656 87.6606 270.236 87.4508C269.823 87.234 269.176 87.1255 268.293 87.1255C267.511 87.1255 266.895 87.2268 266.448 87.4292C265.999 87.6244 265.68 87.8811 265.492 88.1993C265.304 88.5104 265.21 88.843 265.21 89.1974C265.21 89.6962 265.379 90.1265 265.72 90.4882C266.067 90.8497 266.52 91.1714 267.077 91.4535C267.642 91.7355 268.246 92.0139 268.889 92.2887L267.924 92.1803Z" fill="black"/>
<path d="M317.927 101.292L322.335 93.829L322.563 94.2086C322.078 94.5629 321.622 94.8052 321.196 94.9354C320.776 95.0655 320.244 95.1307 319.6 95.1307C318.514 95.1307 317.606 94.9318 316.875 94.5341C316.145 94.1364 315.594 93.5867 315.225 92.8853C314.855 92.1766 314.672 91.3632 314.672 90.4447C314.672 89.5263 314.837 88.6839 315.17 87.9174C315.511 87.1508 316.061 86.5361 316.821 86.0734C317.588 85.6033 318.608 85.3682 319.882 85.3682C321.164 85.3682 322.179 85.596 322.933 86.0516C323.686 86.5 324.225 87.1001 324.55 87.8522C324.875 88.6043 325.039 89.4323 325.039 90.3363C325.039 91.0449 324.952 91.7211 324.778 92.3646C324.604 93.0083 324.351 93.6699 324.018 94.3497C323.686 95.0294 323.28 95.7814 322.802 96.6059L320.099 101.292H317.927ZM319.838 93.3626C320.693 93.3626 321.347 93.2107 321.803 92.907C322.26 92.6033 322.574 92.2127 322.748 91.7355C322.921 91.251 323.009 90.7484 323.009 90.2277C323.009 89.6854 322.919 89.1792 322.737 88.7092C322.563 88.2392 322.245 87.8595 321.782 87.5703C321.319 87.2737 320.656 87.1255 319.795 87.1255C318.942 87.1255 318.293 87.2737 317.852 87.5703C317.41 87.8595 317.106 88.2392 316.939 88.7092C316.781 89.1792 316.702 89.6854 316.702 90.2277C316.702 90.7484 316.781 91.251 316.939 91.7355C317.106 92.2127 317.415 92.6033 317.863 92.907C318.319 93.2107 318.978 93.3626 319.838 93.3626Z" fill="black"/>
<path d="M2 139.773H6.35322V127.115L6.84173 127.548L2.2931 128.037L2.0977 126.312L6.75489 125.769H8.53526V139.773H12.3782V141.454H2V139.773ZM20.1185 141.693C19.0691 141.693 18.2042 141.552 17.5239 141.27C16.8509 140.988 16.319 140.605 15.9281 140.12C15.5446 139.636 15.2622 139.086 15.0813 138.472C14.9004 137.857 14.7847 137.213 14.7339 136.541C14.6906 135.869 14.6689 135.206 14.6689 134.555V132.885C14.6689 132.22 14.6906 131.544 14.7339 130.857C14.7847 130.162 14.8968 129.501 15.0705 128.872C15.2514 128.235 15.5338 127.667 15.9173 127.169C16.308 126.662 16.8437 126.265 17.5239 125.976C18.2042 125.679 19.0691 125.53 20.1185 125.53C21.1679 125.53 22.0327 125.679 22.7131 125.976C23.3934 126.265 23.9253 126.662 24.309 127.169C24.6997 127.667 24.9819 128.235 25.1556 128.872C25.3365 129.501 25.4488 130.162 25.4922 130.857C25.5429 131.544 25.5682 132.22 25.5682 132.885V134.555C25.5682 135.206 25.5429 135.869 25.4922 136.541C25.4488 137.213 25.3365 137.857 25.1556 138.472C24.9747 139.086 24.6889 139.636 24.298 140.12C23.9145 140.605 23.3825 140.988 22.7022 141.27C22.0291 141.552 21.1679 141.693 20.1185 141.693ZM20.1185 139.935C20.8929 139.935 21.5008 139.798 21.9423 139.523C22.3837 139.241 22.7058 138.862 22.9084 138.385C23.1112 137.9 23.2378 137.347 23.2885 136.725C23.3464 136.096 23.3753 135.434 23.3753 134.74V132.603C23.3753 131.909 23.3464 131.244 23.2885 130.608C23.2378 129.964 23.1076 129.396 22.8976 128.904C22.695 128.406 22.3729 128.012 21.9314 127.721C21.4972 127.433 20.8929 127.288 20.1185 127.288C19.3514 127.288 18.7471 127.433 18.3057 127.721C17.8641 128.012 17.5385 128.406 17.3285 128.904C17.1259 129.396 16.9956 129.964 16.9378 130.608C16.8871 131.244 16.8618 131.909 16.8618 132.603V134.74C16.8618 135.434 16.8871 136.096 16.9378 136.725C16.9956 137.347 17.1259 137.9 17.3285 138.385C17.5313 138.862 17.8532 139.241 18.2947 139.523C18.7361 139.798 19.3441 139.935 20.1185 139.935Z" fill="black"/>
<path d="M54.4199 139.534H58.7731V126.876L59.2617 127.309L54.713 127.798L54.5176 126.073L59.1747 125.53H60.9552V139.534H64.7981V141.216H54.4199V139.534ZM67.9898 139.534H72.343V126.876L72.8316 127.309L68.2828 127.798L68.0875 126.073L72.7447 125.53H74.525V139.534H78.3681V141.216H67.9898V139.534Z" fill="black"/>
<path d="M106.368 139.773H110.721V127.115L111.21 127.548L106.661 128.037L106.466 126.312L111.123 125.769H112.903V139.773H116.746V141.454H106.368V139.773ZM120.209 141.454L120.003 139.741L125.312 133.98C125.84 133.41 126.267 132.921 126.593 132.516C126.918 132.105 127.153 131.706 127.298 131.323C127.45 130.933 127.526 130.489 127.526 129.989C127.526 128.984 127.309 128.282 126.875 127.885C126.441 127.487 125.749 127.288 124.801 127.288C124.041 127.288 123.43 127.367 122.967 127.527C122.511 127.678 122.178 127.976 121.968 128.416C121.765 128.85 121.664 129.493 121.664 130.347H119.482C119.482 128.618 119.945 127.385 120.872 126.648C121.798 125.903 123.054 125.53 124.639 125.53C125.768 125.53 126.698 125.729 127.428 126.128C128.16 126.518 128.702 127.049 129.057 127.721C129.412 128.388 129.589 129.136 129.589 129.968C129.589 130.662 129.502 131.269 129.328 131.79C129.162 132.303 128.883 132.817 128.492 133.329C128.102 133.843 127.573 134.451 126.907 135.152L122.207 140.12L122.001 139.762H129.502V141.454H120.209Z" fill="black"/>
<path d="M158.447 139.773H162.8V127.115L163.289 127.548L158.74 128.037L158.545 126.312L163.202 125.769H164.982V139.773H168.825V141.454H158.447V139.773ZM177.151 141.693C175.987 141.693 175.053 141.54 174.352 141.238C173.648 140.927 173.118 140.413 172.755 139.697C172.401 138.982 172.162 138.008 172.039 136.78H174.124C174.181 137.654 174.318 138.319 174.536 138.775C174.76 139.223 175.094 139.531 175.534 139.697C175.976 139.856 176.555 139.935 177.271 139.935C178.212 139.935 178.888 139.697 179.301 139.22C179.721 138.743 179.931 138.044 179.931 137.127C179.931 136.316 179.84 135.684 179.66 135.229C179.486 134.765 179.127 134.44 178.586 134.251C178.049 134.057 177.239 133.96 176.154 133.96V132.344C176.993 132.344 177.648 132.288 178.119 132.18C178.595 132.064 178.943 131.895 179.161 131.67C179.378 131.438 179.511 131.156 179.562 130.825C179.619 130.484 179.649 130.094 179.649 129.653C179.649 128.915 179.461 128.337 179.084 127.917C178.708 127.498 178.053 127.288 177.12 127.288C176.475 127.288 175.94 127.356 175.513 127.494C175.085 127.624 174.764 127.906 174.546 128.341C174.336 128.774 174.232 129.439 174.232 130.336H172.148C172.148 129.006 172.364 127.996 172.799 127.309C173.24 126.615 173.837 126.146 174.591 125.9C175.342 125.654 176.182 125.53 177.108 125.53C178.013 125.53 178.809 125.675 179.497 125.965C180.185 126.247 180.72 126.688 181.103 127.288C181.494 127.888 181.69 128.666 181.69 129.621C181.69 130.351 181.593 130.969 181.397 131.474C181.209 131.981 180.901 132.375 180.474 132.657C180.054 132.932 179.49 133.102 178.78 133.167L178.845 133.07C179.511 133.171 180.079 133.363 180.55 133.644C181.02 133.926 181.379 134.346 181.624 134.902C181.877 135.452 182.004 136.198 182.004 137.138C182.004 138.135 181.812 138.975 181.429 139.654C181.053 140.327 180.503 140.837 179.779 141.184C179.055 141.522 178.18 141.693 177.151 141.693Z" fill="black"/>
<path d="M210.471 139.534H214.824V126.876L215.313 127.309L210.764 127.798L210.569 126.073L215.226 125.53H217.006V139.534H220.849V141.216H210.471V139.534ZM230.305 141.216V137.409H223.357V135.705L229.101 125.53H231.368L225.55 136.151L225.3 135.727H230.305V132.137H232.119V135.727H234.42V137.409H232.119V141.216H230.305Z" fill="black"/>
<path d="M262.875 139.534H267.229V126.876L267.718 127.309L263.169 127.798L262.974 126.073L267.631 125.53H269.411V139.534H273.254V141.216H262.875V139.534ZM281.07 141.454C280.427 141.454 279.825 141.403 279.268 141.302C278.718 141.202 278.187 141.046 277.673 140.837C277.159 140.627 276.631 140.366 276.087 140.055L276.663 138.396C277.17 138.728 277.633 138.989 278.052 139.176C278.472 139.365 278.91 139.498 279.367 139.577C279.83 139.658 280.369 139.697 280.984 139.697C281.997 139.697 282.8 139.44 283.394 138.927C283.987 138.414 284.284 137.589 284.284 136.453C284.284 135.716 284.179 135.087 283.969 134.566C283.766 134.039 283.444 133.638 283.003 133.363C282.568 133.088 282.008 132.95 281.32 132.95C280.727 132.95 280.177 133.077 279.67 133.329C279.171 133.575 278.726 133.847 278.334 134.143L276.771 133.493L277.326 125.53H285.327V127.32H279.074L278.715 132.603L278.411 132.495C278.744 132.132 279.189 131.851 279.746 131.648C280.31 131.438 280.922 131.334 281.58 131.334C282.631 131.334 283.506 131.529 284.208 131.92C284.91 132.31 285.438 132.878 285.793 133.622C286.155 134.368 286.335 135.274 286.335 136.345C286.335 137.524 286.108 138.493 285.652 139.252C285.196 140.005 284.569 140.562 283.773 140.923C282.985 141.277 282.083 141.454 281.07 141.454Z" fill="black"/>
<path d="M314.672 139.534H319.025V126.876L319.514 127.309L314.965 127.798L314.77 126.073L319.427 125.53H321.207V139.534H325.05V141.216H314.672V139.534ZM333.094 141.454C331.813 141.454 330.797 141.229 330.044 140.782C329.291 140.326 328.752 139.722 328.427 138.97C328.1 138.218 327.938 137.39 327.938 136.487C327.938 135.777 328.025 135.101 328.199 134.458C328.373 133.814 328.626 133.153 328.959 132.473C329.291 131.794 329.697 131.041 330.175 130.216L332.878 125.53H335.048L330.642 132.993L330.414 132.614C330.898 132.259 331.351 132.017 331.77 131.887C332.197 131.758 332.733 131.692 333.376 131.692C334.463 131.692 335.368 131.891 336.09 132.288C336.821 132.686 337.371 133.236 337.741 133.937C338.111 134.639 338.294 135.452 338.294 136.378C338.294 137.289 338.125 138.132 337.784 138.905C337.452 139.672 336.905 140.289 336.144 140.76C335.386 141.223 334.369 141.454 333.094 141.454ZM333.182 139.697C334.028 139.697 334.673 139.552 335.113 139.263C335.562 138.966 335.867 138.583 336.026 138.114C336.185 137.636 336.264 137.129 336.264 136.595C336.264 136.067 336.182 135.565 336.015 135.087C335.855 134.609 335.551 134.219 335.102 133.915C334.655 133.611 333.999 133.46 333.137 133.46C332.291 133.46 331.637 133.611 331.173 133.915C330.717 134.219 330.403 134.609 330.229 135.087C330.055 135.565 329.968 136.067 329.968 136.595C329.968 137.129 330.055 137.636 330.229 138.114C330.41 138.583 330.732 138.966 331.195 139.263C331.658 139.552 332.32 139.697 333.182 139.697Z" fill="black"/>
<path d="M2 179.697H6.35322V167.039L6.84174 167.472L2.2931 167.96L2.0977 166.236L6.75489 165.693H8.53526V179.697H12.3782V181.378H2V179.697ZM17.22 181.378L22.8217 166.919L23.1365 167.483H15.2659V165.693H24.8301V167.397L19.5105 181.378H17.22Z" fill="black"/>
<path d="M54.4199 179.936H58.7731V167.277L59.2617 167.711L54.713 168.199L54.5176 166.475L59.1747 165.932H60.9552V179.936H64.7981V181.617H54.4199V179.936ZM72.5167 181.856C71.214 181.856 70.1718 181.664 69.3902 181.281C68.6086 180.891 68.0441 180.366 67.6967 179.708C67.3566 179.05 67.1865 178.313 67.1865 177.495C67.1865 176.505 67.5048 175.644 68.1418 174.914C68.7786 174.183 69.6218 173.616 70.6712 173.21L70.7364 173.503C70.179 173.237 69.6507 172.932 69.1513 172.592C68.6593 172.252 68.2576 171.84 67.9464 171.355C67.6424 170.864 67.4904 170.271 67.4904 169.577C67.4904 168.905 67.6569 168.276 67.9898 167.69C68.33 167.097 68.8691 166.615 69.6074 166.247C70.3455 165.878 71.3153 165.693 72.5167 165.693C73.8194 165.693 74.8399 165.882 75.578 166.258C76.3163 166.633 76.8338 167.115 77.1304 167.701C77.4345 168.278 77.5864 168.88 77.5864 169.5C77.5864 170.108 77.4525 170.654 77.1848 171.139C76.917 171.616 76.5297 172.042 76.0231 172.419C75.5238 172.788 74.9123 173.109 74.1885 173.384L74.3731 173.113C74.9955 173.41 75.5708 173.749 76.0991 174.132C76.6348 174.515 77.0653 174.979 77.391 175.52C77.7239 176.056 77.8904 176.71 77.8904 177.484C77.8904 178.295 77.7131 179.032 77.3585 179.697C77.0111 180.355 76.4429 180.88 75.654 181.27C74.8652 181.66 73.8194 181.856 72.5167 181.856ZM72.6035 180.098C73.4865 180.098 74.156 179.983 74.6119 179.751C75.0751 179.521 75.3899 179.201 75.5564 178.797C75.73 178.392 75.8169 177.936 75.8169 177.43C75.8169 176.823 75.636 176.316 75.2741 175.912C74.9195 175.5 74.449 175.141 73.8629 174.837C73.2766 174.526 72.6434 174.226 71.9631 173.938L72.8099 174.046C71.6518 174.443 70.7689 174.917 70.161 175.466C69.5603 176.009 69.26 176.663 69.26 177.43C69.26 177.936 69.3541 178.392 69.5422 178.797C69.7303 179.201 70.0669 179.521 70.5519 179.751C71.0367 179.983 71.7206 180.098 72.6035 180.098ZM72.2345 172.506C72.7483 172.347 73.2586 172.13 73.7651 171.855C74.2789 171.573 74.7059 171.24 75.0461 170.857C75.3863 170.474 75.5564 170.047 75.5564 169.577C75.5564 169.236 75.4912 168.905 75.361 168.578C75.2379 168.253 74.9665 167.985 74.5468 167.776C74.1343 167.559 73.4865 167.451 72.6035 167.451C71.8219 167.451 71.2068 167.552 70.7581 167.755C70.3094 167.949 69.9909 168.206 69.8027 168.524C69.6146 168.835 69.5205 169.168 69.5205 169.522C69.5205 170.021 69.6906 170.451 70.0308 170.814C70.3782 171.175 70.8305 171.497 71.3877 171.779C71.9523 172.061 72.5566 172.34 73.2006 172.615L72.2345 172.506Z" fill="black"/>
<path d="M106.368 179.936H110.721V167.277L111.21 167.711L106.661 168.199L106.466 166.475L111.123 165.932H112.903V179.936H116.746V181.617H106.368V179.936ZM122.598 181.617L127.005 174.154L127.233 174.533C126.748 174.889 126.292 175.13 125.865 175.261C125.445 175.391 124.914 175.455 124.269 175.455C123.184 175.455 122.276 175.257 121.545 174.86C120.814 174.461 120.264 173.913 119.895 173.21C119.525 172.502 119.341 171.688 119.341 170.771C119.341 169.852 119.507 169.009 119.84 168.242C120.18 167.476 120.73 166.861 121.49 166.399C122.258 165.929 123.278 165.693 124.552 165.693C125.833 165.693 126.85 165.921 127.602 166.376C128.355 166.825 128.894 167.426 129.22 168.177C129.545 168.93 129.708 169.757 129.708 170.661C129.708 171.37 129.621 172.047 129.448 172.689C129.274 173.334 129.021 173.995 128.688 174.675C128.355 175.355 127.95 176.106 127.472 176.931L124.769 181.617H122.598ZM124.508 173.688C125.362 173.688 126.017 173.536 126.473 173.232C126.929 172.928 127.244 172.538 127.418 172.061C127.591 171.576 127.678 171.073 127.678 170.553C127.678 170.011 127.588 169.504 127.407 169.035C127.233 168.564 126.915 168.185 126.451 167.895C125.988 167.6 125.326 167.451 124.465 167.451C123.611 167.451 122.963 167.6 122.522 167.895C122.08 168.185 121.776 168.564 121.61 169.035C121.45 169.504 121.371 170.011 121.371 170.553C121.371 171.073 121.45 171.576 121.61 172.061C121.776 172.538 122.084 172.928 122.533 173.232C122.988 173.536 123.647 173.688 124.508 173.688Z" fill="black"/>
<path d="M159.175 181.617L158.968 179.904L164.277 174.143C164.805 173.573 165.232 173.084 165.557 172.678C165.884 172.267 166.118 171.869 166.263 171.486C166.416 171.096 166.491 170.651 166.491 170.151C166.491 169.146 166.274 168.445 165.84 168.048C165.406 167.649 164.715 167.451 163.766 167.451C163.006 167.451 162.394 167.53 161.932 167.69C161.476 167.841 161.142 168.138 160.933 168.578C160.73 169.013 160.63 169.656 160.63 170.51H158.447C158.447 168.781 158.911 167.548 159.836 166.811C160.763 166.065 162.019 165.693 163.603 165.693C164.733 165.693 165.663 165.892 166.394 166.29C167.124 166.68 167.668 167.212 168.022 167.884C168.376 168.551 168.554 169.299 168.554 170.131C168.554 170.825 168.467 171.432 168.293 171.952C168.126 172.466 167.848 172.98 167.458 173.492C167.066 174.006 166.538 174.614 165.872 175.315L161.172 180.283L160.966 179.925H168.467V181.617H159.175ZM177.021 181.856C175.972 181.856 175.107 181.714 174.427 181.432C173.754 181.151 173.222 180.767 172.831 180.283C172.448 179.798 172.166 179.248 171.984 178.635C171.803 178.02 171.688 177.375 171.636 176.703C171.593 176.031 171.572 175.369 171.572 174.718V173.048C171.572 172.383 171.593 171.706 171.636 171.019C171.688 170.325 171.8 169.664 171.974 169.035C172.155 168.398 172.437 167.83 172.82 167.332C173.211 166.825 173.747 166.428 174.427 166.139C175.107 165.842 175.972 165.693 177.021 165.693C178.071 165.693 178.936 165.842 179.617 166.139C180.296 166.428 180.828 166.825 181.212 167.332C181.602 167.83 181.884 168.398 182.058 169.035C182.24 169.664 182.351 170.325 182.396 171.019C182.446 171.706 182.471 172.383 182.471 173.048V174.718C182.471 175.369 182.446 176.031 182.396 176.703C182.351 177.375 182.24 178.02 182.058 178.635C181.877 179.248 181.593 179.798 181.201 180.283C180.817 180.767 180.285 181.151 179.605 181.432C178.932 181.714 178.071 181.856 177.021 181.856ZM177.021 180.098C177.796 180.098 178.403 179.961 178.845 179.686C179.287 179.404 179.608 179.025 179.811 178.547C180.014 178.063 180.14 177.51 180.192 176.888C180.249 176.259 180.278 175.597 180.278 174.903V172.766C180.278 172.072 180.249 171.407 180.192 170.771C180.14 170.126 180.01 169.559 179.8 169.067C179.599 168.569 179.276 168.174 178.834 167.884C178.401 167.595 177.796 167.451 177.021 167.451C176.254 167.451 175.649 167.595 175.209 167.884C174.767 168.174 174.442 168.569 174.232 169.067C174.029 169.559 173.899 170.126 173.84 170.771C173.79 171.407 173.765 172.072 173.765 172.766V174.903C173.765 175.597 173.79 176.259 173.84 176.888C173.899 177.51 174.029 178.063 174.232 178.547C174.434 179.025 174.756 179.404 175.198 179.686C175.64 179.961 176.247 180.098 177.021 180.098Z" fill="black"/>
<path d="M211.199 181.617L210.992 179.904L216.301 174.143C216.829 173.573 217.256 173.084 217.581 172.678C217.908 172.267 218.142 171.869 218.287 171.486C218.44 171.096 218.515 170.651 218.515 170.151C218.515 169.146 218.298 168.445 217.865 168.048C217.43 167.649 216.739 167.451 215.79 167.451C215.03 167.451 214.418 167.53 213.956 167.69C213.5 167.841 213.166 168.138 212.957 168.578C212.754 169.013 212.654 169.656 212.654 170.51H210.471C210.471 168.781 210.935 167.548 211.86 166.811C212.787 166.065 214.043 165.693 215.627 165.693C216.757 165.693 217.687 165.892 218.418 166.29C219.148 166.68 219.692 167.212 220.046 167.884C220.4 168.551 220.578 169.299 220.578 170.131C220.578 170.825 220.491 171.432 220.317 171.952C220.15 172.466 219.872 172.98 219.482 173.492C219.09 174.006 218.562 174.614 217.896 175.315L213.196 180.283L212.99 179.925H220.491V181.617H211.199ZM224.497 179.936H228.85V167.277L229.338 167.711L224.79 168.199L224.594 166.475L229.252 165.932H231.032V179.936H234.875V181.617H224.497V179.936Z" fill="black"/>
<path d="M263.604 181.617L263.397 179.904L268.706 174.143C269.234 173.573 269.661 173.084 269.986 172.678C270.312 172.267 270.547 171.869 270.692 171.486C270.845 171.096 270.92 170.651 270.92 170.151C270.92 169.146 270.703 168.445 270.269 168.048C269.834 167.649 269.144 167.451 268.195 167.451C267.435 167.451 266.823 167.53 266.36 167.69C265.905 167.841 265.571 168.138 265.361 168.578C265.159 169.013 265.058 169.656 265.058 170.51H262.875C262.875 168.781 263.34 167.548 264.265 166.811C265.192 166.065 266.448 165.693 268.032 165.693C269.162 165.693 270.091 165.892 270.822 166.29C271.553 166.68 272.097 167.212 272.451 167.884C272.805 168.551 272.983 169.299 272.983 170.131C272.983 170.825 272.896 171.432 272.722 171.952C272.555 172.466 272.277 172.98 271.887 173.492C271.495 174.006 270.967 174.614 270.301 175.315L265.6 180.283L265.395 179.925H272.896V181.617H263.604ZM277.173 181.617L276.967 179.904L282.275 174.143C282.803 173.573 283.231 173.084 283.556 172.678C283.881 172.267 284.118 171.869 284.262 171.486C284.414 171.096 284.49 170.651 284.49 170.151C284.49 169.146 284.273 168.445 283.838 168.048C283.405 167.649 282.713 167.451 281.765 167.451C281.005 167.451 280.394 167.53 279.931 167.69C279.475 167.841 279.142 168.138 278.932 168.578C278.729 169.013 278.628 169.656 278.628 170.51H276.446C276.446 168.781 276.909 167.548 277.835 166.811C278.762 166.065 280.017 165.693 281.603 165.693C282.731 165.693 283.662 165.892 284.393 166.29C285.124 166.68 285.666 167.212 286.021 167.884C286.376 168.551 286.552 169.299 286.552 170.131C286.552 170.825 286.466 171.432 286.292 171.952C286.126 172.466 285.846 172.98 285.456 173.492C285.065 174.006 284.537 174.614 283.872 175.315L279.171 180.283L278.964 179.925H286.466V181.617H277.173Z" fill="black"/>
<path d="M315.4 181.617L315.193 179.904L320.502 174.143C321.03 173.573 321.457 173.084 321.782 172.678C322.109 172.267 322.343 171.869 322.488 171.486C322.641 171.096 322.716 170.651 322.716 170.151C322.716 169.146 322.499 168.445 322.065 168.048C321.631 167.649 320.94 167.451 319.991 167.451C319.231 167.451 318.619 167.53 318.157 167.69C317.701 167.841 317.367 168.138 317.158 168.578C316.955 169.013 316.855 169.656 316.855 170.51H314.672C314.672 168.781 315.136 167.548 316.061 166.811C316.988 166.065 318.244 165.693 319.828 165.693C320.958 165.693 321.888 165.892 322.619 166.29C323.349 166.68 323.893 167.212 324.247 167.884C324.601 168.551 324.779 169.299 324.779 170.131C324.779 170.825 324.692 171.432 324.518 171.952C324.351 172.466 324.073 172.98 323.683 173.492C323.291 174.006 322.763 174.614 322.097 175.315L317.397 180.283L317.191 179.925H324.692V181.617H315.4ZM333.832 181.856C332.668 181.856 331.734 181.703 331.032 181.4C330.329 181.089 329.798 180.576 329.436 179.859C329.081 179.144 328.842 178.171 328.72 176.942H330.804C330.861 177.817 330.999 178.482 331.217 178.937C331.441 179.386 331.774 179.694 332.215 179.859C332.657 180.019 333.236 180.098 333.952 180.098C334.892 180.098 335.569 179.859 335.982 179.383C336.402 178.905 336.611 178.207 336.611 177.289C336.611 176.478 336.521 175.847 336.34 175.391C336.167 174.928 335.808 174.603 335.266 174.414C334.73 174.22 333.92 174.122 332.835 174.122V172.506C333.674 172.506 334.328 172.451 334.799 172.342C335.276 172.227 335.623 172.058 335.842 171.833C336.058 171.601 336.192 171.319 336.243 170.987C336.3 170.647 336.329 170.257 336.329 169.815C336.329 169.078 336.142 168.499 335.765 168.08C335.389 167.661 334.734 167.451 333.8 167.451C333.156 167.451 332.621 167.519 332.194 167.656C331.766 167.787 331.445 168.069 331.227 168.503C331.017 168.937 330.913 169.602 330.913 170.499H328.828C328.828 169.168 329.045 168.159 329.48 167.472C329.921 166.778 330.518 166.308 331.271 166.063C332.023 165.817 332.862 165.693 333.789 165.693C334.694 165.693 335.49 165.838 336.178 166.128C336.866 166.41 337.401 166.851 337.784 167.451C338.175 168.051 338.371 168.828 338.371 169.784C338.371 170.514 338.273 171.132 338.077 171.637C337.89 172.144 337.581 172.538 337.155 172.82C336.735 173.095 336.171 173.264 335.461 173.33L335.526 173.232C336.192 173.334 336.76 173.525 337.231 173.807C337.701 174.089 338.059 174.508 338.305 175.065C338.558 175.615 338.685 176.36 338.685 177.3C338.685 178.297 338.493 179.137 338.109 179.816C337.734 180.49 337.184 180.999 336.46 181.346C335.736 181.685 334.861 181.856 333.832 181.856Z" fill="black"/>
<path d="M2 222.232V220.812L7.33715 214.975C7.96351 214.291 8.47933 213.696 8.88462 213.192C9.28992 212.681 9.58993 212.204 9.78468 211.757C9.98469 211.304 10.0847 210.831 10.0847 210.336C10.0847 209.768 9.94784 209.277 9.67414 208.86C9.40571 208.445 9.03727 208.125 8.56882 207.898C8.10037 207.672 7.57402 207.56 6.98977 207.56C6.36867 207.56 5.82654 207.689 5.36336 207.945C4.90543 208.198 4.55015 208.554 4.2975 209.01C4.05011 209.469 3.92643 210.005 3.92643 210.62H2.06316C2.06316 209.674 2.28159 208.842 2.71846 208.127C3.15532 207.412 3.75011 206.854 4.50278 206.454C5.26072 206.054 6.11077 205.856 7.05293 205.856C8.00036 205.856 8.83988 206.054 9.57151 206.454C10.3031 206.854 10.8768 207.393 11.2927 208.072C11.7085 208.751 11.9164 209.505 11.9164 210.336C11.9164 210.931 11.8085 211.511 11.5927 212.08C11.3821 212.643 11.0137 213.27 10.4874 213.964C9.96627 214.654 9.24255 215.496 8.31617 216.49L4.68436 220.371V220.497H12.2006V222.232H2ZM14.735 218.92V217.31L21.8407 206.077H23.0092V208.569H22.2197L16.8508 217.058V217.184H26.4199V218.92H14.735ZM22.346 222.232V218.43V217.681V206.077H24.2092V222.232H22.346Z" fill="black"/>
<path d="M55.1474 221.78L54.941 220.066L60.2497 214.306C60.778 213.735 61.205 213.246 61.5306 212.841C61.8563 212.43 62.0915 212.032 62.2362 211.648C62.3882 211.258 62.4642 210.814 62.4642 210.314C62.4642 209.309 62.2472 208.608 61.8129 208.211C61.3787 207.812 60.6875 207.614 59.7394 207.614C58.9795 207.614 58.3679 207.693 57.9048 207.852C57.4487 208.004 57.1159 208.301 56.906 208.741C56.7034 209.176 56.6021 209.818 56.6021 210.672H54.4199C54.4199 208.944 54.8832 207.711 55.8095 206.974C56.7359 206.228 57.9916 205.856 59.5766 205.856C60.7056 205.856 61.6356 206.054 62.3665 206.453C63.0974 206.843 63.6403 207.375 63.995 208.047C64.3496 208.713 64.5269 209.462 64.5269 210.293C64.5269 210.988 64.44 211.594 64.2663 212.115C64.0999 212.629 63.8213 213.142 63.4304 213.655C63.0396 214.168 62.5113 214.777 61.8454 215.478L57.1448 220.446L56.9386 220.087H64.44V221.78H55.1474ZM73.0704 222.019C72.4264 222.019 71.8257 221.967 71.2683 221.866C70.7183 221.766 70.1864 221.61 69.6725 221.401C69.1587 221.191 68.6304 220.93 68.0876 220.619L68.6629 218.96C69.1695 219.292 69.6328 219.553 70.0525 219.74C70.4722 219.929 70.9101 220.062 71.3661 220.141C71.8293 220.222 72.3684 220.261 72.9836 220.261C73.9969 220.261 74.8002 220.004 75.3936 219.492C75.9871 218.978 76.2838 218.153 76.2838 217.017C76.2838 216.28 76.1789 215.651 75.9691 215.131C75.7663 214.603 75.4444 214.202 75.0029 213.927C74.5685 213.652 74.0077 213.514 73.3201 213.514C72.7267 213.514 72.1767 213.641 71.67 213.894C71.1706 214.139 70.7256 214.411 70.3348 214.707L68.7716 214.057L69.3252 206.095H77.326V207.884H71.0729L70.7147 213.167L70.4108 213.059C70.7436 212.697 71.1888 212.415 71.746 212.212C72.3105 212.002 72.9222 211.898 73.5807 211.898C74.6301 211.898 75.5058 212.093 76.2078 212.484C76.9098 212.874 77.4382 213.442 77.7928 214.186C78.1547 214.932 78.3356 215.839 78.3356 216.909C78.3356 218.088 78.1076 219.057 77.6517 219.817C77.1958 220.569 76.5698 221.126 75.7735 221.487C74.9847 221.841 74.0837 222.019 73.0704 222.019Z" fill="black"/>
<path d="M107.095 221.78L106.889 220.066L112.198 214.306C112.726 213.735 113.153 213.246 113.479 212.841C113.804 212.43 114.04 212.032 114.184 211.648C114.336 211.258 114.412 210.814 114.412 210.314C114.412 209.309 114.195 208.608 113.761 208.211C113.327 207.812 112.636 207.614 111.688 207.614C110.928 207.614 110.316 207.693 109.853 207.852C109.397 208.004 109.064 208.301 108.854 208.741C108.652 209.176 108.55 209.818 108.55 210.672H106.368C106.368 208.944 106.831 207.711 107.758 206.974C108.684 206.228 109.94 205.856 111.525 205.856C112.654 205.856 113.584 206.054 114.315 206.453C115.046 206.843 115.588 207.375 115.943 208.047C116.298 208.713 116.475 209.462 116.475 210.293C116.475 210.988 116.388 211.594 116.214 212.115C116.048 212.629 115.769 213.142 115.379 213.655C114.988 214.168 114.459 214.777 113.794 215.478L109.093 220.446L108.887 220.087H116.388V221.78H107.095ZM125.247 222.019C123.966 222.019 122.949 221.794 122.196 221.347C121.443 220.89 120.904 220.286 120.578 219.535C120.253 218.782 120.09 217.955 120.09 217.051C120.09 216.341 120.177 215.665 120.351 215.022C120.524 214.378 120.777 213.717 121.11 213.037C121.443 212.358 121.849 211.605 122.326 210.781L125.029 206.095H127.201L122.793 213.558L122.565 213.178C123.05 212.823 123.502 212.581 123.922 212.451C124.349 212.322 124.885 212.257 125.529 212.257C126.614 212.257 127.519 212.455 128.243 212.852C128.974 213.251 129.524 213.8 129.893 214.502C130.262 215.203 130.447 216.016 130.447 216.943C130.447 217.853 130.277 218.696 129.936 219.469C129.603 220.236 129.057 220.854 128.297 221.324C127.537 221.787 126.52 222.019 125.247 222.019ZM125.333 220.261C126.18 220.261 126.824 220.116 127.266 219.828C127.714 219.531 128.018 219.147 128.178 218.678C128.337 218.2 128.416 217.694 128.416 217.159C128.416 216.631 128.333 216.129 128.167 215.651C128.008 215.174 127.704 214.783 127.255 214.479C126.806 214.175 126.151 214.024 125.29 214.024C124.443 214.024 123.788 214.175 123.325 214.479C122.869 214.783 122.554 215.174 122.381 215.651C122.207 216.129 122.12 216.631 122.12 217.159C122.12 217.694 122.207 218.2 122.381 218.678C122.562 219.147 122.884 219.531 123.347 219.828C123.81 220.116 124.472 220.261 125.333 220.261Z" fill="black"/>
<path d="M159.175 221.78L158.968 220.066L164.277 214.306C164.805 213.735 165.232 213.246 165.557 212.841C165.884 212.43 166.118 212.032 166.263 211.648C166.416 211.258 166.491 210.814 166.491 210.314C166.491 209.309 166.274 208.608 165.84 208.211C165.406 207.812 164.715 207.614 163.766 207.614C163.006 207.614 162.394 207.693 161.932 207.852C161.476 208.004 161.142 208.301 160.933 208.741C160.73 209.176 160.63 209.818 160.63 210.672H158.447C158.447 208.944 158.911 207.711 159.836 206.974C160.763 206.228 162.019 205.856 163.603 205.856C164.733 205.856 165.663 206.054 166.394 206.453C167.124 206.843 167.668 207.375 168.022 208.047C168.376 208.713 168.554 209.462 168.554 210.293C168.554 210.988 168.467 211.594 168.293 212.115C168.126 212.629 167.848 213.142 167.458 213.655C167.066 214.168 166.538 214.777 165.872 215.478L161.172 220.446L160.966 220.087H168.467V221.78H159.175ZM174.122 221.78L179.725 207.321L180.039 207.884H172.169V206.095H181.733V207.798L176.414 221.78H174.122Z" fill="black"/>
<path d="M211.199 221.78L210.992 220.066L216.301 214.306C216.829 213.735 217.256 213.246 217.581 212.841C217.908 212.43 218.142 212.032 218.287 211.648C218.44 211.258 218.515 210.814 218.515 210.314C218.515 209.309 218.298 208.608 217.865 208.211C217.43 207.812 216.739 207.614 215.79 207.614C215.03 207.614 214.418 207.693 213.956 207.852C213.5 208.004 213.166 208.301 212.957 208.741C212.754 209.176 212.654 209.818 212.654 210.672H210.471C210.471 208.944 210.935 207.711 211.86 206.974C212.787 206.228 214.043 205.856 215.627 205.856C216.757 205.856 217.687 206.054 218.418 206.453C219.148 206.843 219.692 207.375 220.046 208.047C220.4 208.713 220.578 209.462 220.578 210.293C220.578 210.988 220.491 211.594 220.317 212.115C220.15 212.629 219.872 213.142 219.482 213.655C219.09 214.168 218.562 214.777 217.896 215.478L213.196 220.446L212.99 220.087H220.491V221.78H211.199ZM229.024 222.019C227.721 222.019 226.678 221.827 225.898 221.444C225.115 221.054 224.551 220.529 224.204 219.871C223.863 219.213 223.694 218.475 223.694 217.658C223.694 216.668 224.012 215.807 224.648 215.076C225.286 214.346 226.128 213.778 227.179 213.373L227.244 213.666C226.687 213.399 226.157 213.095 225.659 212.755C225.167 212.415 224.765 212.002 224.454 211.518C224.149 211.026 223.998 210.434 223.998 209.739C223.998 209.067 224.163 208.438 224.497 207.852C224.837 207.26 225.376 206.778 226.114 206.41C226.852 206.041 227.822 205.856 229.024 205.856C230.326 205.856 231.347 206.045 232.085 206.421C232.823 206.796 233.341 207.278 233.637 207.864C233.942 208.441 234.093 209.042 234.093 209.663C234.093 210.271 233.96 210.817 233.692 211.301C233.423 211.779 233.037 212.205 232.53 212.581C232.031 212.951 231.42 213.272 230.696 213.546L230.881 213.276C231.503 213.573 232.078 213.912 232.606 214.295C233.141 214.678 233.572 215.142 233.899 215.683C234.231 216.219 234.397 216.873 234.397 217.646C234.397 218.457 234.22 219.195 233.865 219.86C233.518 220.518 232.95 221.043 232.162 221.433C231.372 221.823 230.326 222.019 229.024 222.019ZM229.11 220.261C229.994 220.261 230.662 220.146 231.12 219.914C231.582 219.683 231.898 219.364 232.063 218.96C232.237 218.554 232.324 218.099 232.324 217.592C232.324 216.986 232.144 216.479 231.781 216.075C231.427 215.662 230.956 215.304 230.371 215C229.784 214.689 229.151 214.389 228.47 214.1L229.317 214.209C228.158 214.606 227.276 215.079 226.669 215.629C226.067 216.172 225.767 216.826 225.767 217.592C225.767 218.099 225.861 218.554 226.049 218.96C226.238 219.364 226.574 219.683 227.059 219.914C227.544 220.146 228.228 220.261 229.11 220.261ZM228.742 212.669C229.255 212.509 229.766 212.293 230.272 212.018C230.786 211.736 231.213 211.403 231.553 211.019C231.894 210.636 232.063 210.21 232.063 209.739C232.063 209.399 231.998 209.067 231.868 208.741C231.745 208.416 231.474 208.148 231.054 207.939C230.642 207.722 229.994 207.614 229.11 207.614C228.329 207.614 227.714 207.715 227.265 207.918C226.816 208.112 226.498 208.369 226.31 208.687C226.121 208.998 226.028 209.331 226.028 209.685C226.028 210.184 226.198 210.614 226.538 210.976C226.886 211.337 227.337 211.66 227.894 211.941C228.46 212.223 229.063 212.502 229.708 212.777L228.742 212.669Z" fill="black"/>
<path d="M263.604 221.78L263.397 220.066L268.706 214.306C269.234 213.735 269.661 213.246 269.986 212.841C270.312 212.43 270.547 212.032 270.692 211.648C270.845 211.258 270.92 210.814 270.92 210.314C270.92 209.309 270.703 208.608 270.269 208.211C269.834 207.812 269.144 207.614 268.195 207.614C267.435 207.614 266.823 207.693 266.36 207.852C265.905 208.004 265.571 208.301 265.361 208.741C265.159 209.176 265.058 209.818 265.058 210.672H262.875C262.875 208.944 263.34 207.711 264.265 206.974C265.192 206.228 266.448 205.856 268.032 205.856C269.162 205.856 270.091 206.054 270.822 206.453C271.553 206.843 272.097 207.375 272.451 208.047C272.805 208.713 272.983 209.462 272.983 210.293C272.983 210.988 272.896 211.594 272.722 212.115C272.555 212.629 272.277 213.142 271.887 213.655C271.495 214.168 270.967 214.777 270.301 215.478L265.6 220.446L265.395 220.087H272.896V221.78H263.604ZM279.561 221.78L283.969 214.317L284.197 214.696C283.712 215.051 283.256 215.293 282.83 215.424C282.41 215.554 281.878 215.618 281.233 215.618C280.148 215.618 279.239 215.419 278.508 215.022C277.777 214.624 277.227 214.075 276.859 213.373C276.489 212.665 276.304 211.851 276.304 210.933C276.304 210.014 276.471 209.171 276.804 208.405C277.143 207.639 277.694 207.024 278.454 206.561C279.221 206.092 280.242 205.856 281.515 205.856C282.796 205.856 283.813 206.084 284.566 206.539C285.318 206.987 285.857 207.589 286.184 208.34C286.509 209.092 286.672 209.92 286.672 210.824C286.672 211.533 286.586 212.209 286.412 212.852C286.238 213.496 285.984 214.157 285.652 214.838C285.318 215.518 284.914 216.269 284.436 217.094L281.733 221.78H279.561ZM281.472 213.85C282.327 213.85 282.981 213.699 283.437 213.395C283.893 213.091 284.208 212.701 284.382 212.223C284.555 211.739 284.642 211.236 284.642 210.715C284.642 210.174 284.551 209.667 284.371 209.198C284.197 208.727 283.879 208.348 283.415 208.058C282.952 207.762 282.29 207.614 281.429 207.614C280.574 207.614 279.927 207.762 279.485 208.058C279.044 208.348 278.74 208.727 278.573 209.198C278.415 209.667 278.334 210.174 278.334 210.715C278.334 211.236 278.415 211.739 278.573 212.223C278.74 212.701 279.047 213.091 279.496 213.395C279.952 213.699 280.61 213.85 281.472 213.85Z" fill="black"/>
<path d="M319.785 222.019C318.619 222.019 317.686 221.866 316.984 221.563C316.282 221.252 315.75 220.738 315.389 220.022C315.033 219.307 314.795 218.334 314.672 217.105H316.756C316.814 217.98 316.952 218.645 317.169 219.1C317.392 219.549 317.726 219.857 318.168 220.022C318.608 220.182 319.188 220.261 319.905 220.261C320.845 220.261 321.522 220.022 321.935 219.546C322.355 219.068 322.564 218.37 322.564 217.452C322.564 216.641 322.474 216.009 322.292 215.554C322.118 215.09 321.761 214.765 321.218 214.577C320.683 214.382 319.871 214.285 318.786 214.285V212.669C319.625 212.669 320.28 212.613 320.751 212.505C321.229 212.39 321.576 212.22 321.793 211.996C322.01 211.764 322.145 211.482 322.195 211.15C322.253 210.81 322.282 210.42 322.282 209.978C322.282 209.241 322.093 208.662 321.717 208.243C321.34 207.823 320.686 207.614 319.752 207.614C319.108 207.614 318.572 207.682 318.146 207.819C317.719 207.95 317.397 208.231 317.18 208.666C316.97 209.099 316.864 209.764 316.864 210.661H314.78C314.78 209.331 314.997 208.322 315.432 207.634C315.874 206.94 316.47 206.471 317.223 206.225C317.976 205.979 318.815 205.856 319.741 205.856C320.645 205.856 321.442 206 322.129 206.29C322.817 206.572 323.352 207.014 323.736 207.614C324.128 208.213 324.322 208.991 324.322 209.946C324.322 210.677 324.225 211.294 324.029 211.8C323.841 212.307 323.534 212.701 323.106 212.983C322.687 213.258 322.122 213.427 321.414 213.492L321.478 213.395C322.145 213.496 322.712 213.688 323.183 213.97C323.654 214.252 324.011 214.671 324.257 215.228C324.511 215.778 324.638 216.523 324.638 217.463C324.638 218.46 324.446 219.3 324.062 219.979C323.686 220.652 323.135 221.162 322.411 221.509C321.688 221.848 320.812 222.019 319.785 222.019ZM332.768 222.019C331.719 222.019 330.854 221.877 330.174 221.595C329.501 221.313 328.969 220.93 328.578 220.446C328.195 219.961 327.913 219.411 327.731 218.797C327.55 218.182 327.435 217.538 327.383 216.866C327.34 216.194 327.319 215.532 327.319 214.881V213.21C327.319 212.545 327.34 211.869 327.383 211.182C327.435 210.488 327.547 209.827 327.721 209.198C327.902 208.561 328.184 207.993 328.567 207.494C328.958 206.987 329.494 206.59 330.174 206.302C330.854 206.004 331.719 205.856 332.768 205.856C333.818 205.856 334.683 206.004 335.364 206.302C336.043 206.59 336.575 206.987 336.959 207.494C337.349 207.993 337.631 208.561 337.805 209.198C337.987 209.827 338.098 210.488 338.143 211.182C338.193 211.869 338.218 212.545 338.218 213.21V214.881C338.218 215.532 338.193 216.194 338.143 216.866C338.098 217.538 337.987 218.182 337.805 218.797C337.624 219.411 337.34 219.961 336.948 220.446C336.564 220.93 336.032 221.313 335.352 221.595C334.678 221.877 333.818 222.019 332.768 222.019ZM332.768 220.261C333.543 220.261 334.15 220.123 334.592 219.848C335.034 219.567 335.355 219.188 335.558 218.71C335.761 218.225 335.887 217.673 335.939 217.051C335.996 216.422 336.025 215.76 336.025 215.065V212.929C336.025 212.234 335.996 211.569 335.939 210.933C335.887 210.289 335.757 209.721 335.547 209.23C335.345 208.731 335.023 208.337 334.581 208.047C334.148 207.758 333.543 207.614 332.768 207.614C332.001 207.614 331.396 207.758 330.956 208.047C330.514 208.337 330.189 208.731 329.979 209.23C329.776 209.721 329.646 210.289 329.587 210.933C329.537 211.569 329.512 212.234 329.512 212.929V215.065C329.512 215.76 329.537 216.422 329.587 217.051C329.646 217.673 329.776 218.225 329.979 218.71C330.18 219.188 330.503 219.567 330.945 219.848C331.387 220.123 331.994 220.261 332.768 220.261Z" fill="black"/>
<path d="M7.11314 262.395C5.94794 262.395 5.01433 262.242 4.31231 261.94C3.61029 261.629 3.07835 261.115 2.71648 260.399C2.36187 259.684 2.12303 258.71 2 257.481H4.08434C4.14224 258.356 4.27974 259.021 4.49687 259.477C4.72121 259.925 5.05414 260.233 5.4956 260.399C5.93708 260.558 6.51606 260.637 7.23255 260.637C8.1734 260.637 8.85009 260.399 9.26261 259.922C9.68238 259.445 9.89226 258.746 9.89226 257.829C9.89226 257.018 9.80179 256.386 9.62086 255.931C9.44717 255.467 9.08891 255.142 8.54612 254.953C8.01056 254.759 7.19999 254.662 6.1144 254.662V253.045C6.95391 253.045 7.6089 252.99 8.07932 252.882C8.55698 252.766 8.90437 252.597 9.12149 252.372C9.3386 252.14 9.47249 251.858 9.52315 251.526C9.58105 251.186 9.61 250.796 9.61 250.355C9.61 249.617 9.42184 249.038 9.04549 248.619C8.66916 248.2 8.01417 247.99 7.08057 247.99C6.43646 247.99 5.90089 248.058 5.4739 248.196C5.0469 248.326 4.72484 248.608 4.50772 249.043C4.29784 249.476 4.19289 250.141 4.19289 251.038H2.10855C2.10855 249.708 2.32568 248.698 2.75992 248.011C3.20138 247.317 3.79846 246.847 4.55115 246.602C5.30381 246.356 6.14334 246.232 7.06972 246.232C7.97438 246.232 8.77048 246.377 9.45802 246.667C10.1456 246.949 10.6811 247.39 11.0647 247.99C11.4555 248.59 11.6509 249.367 11.6509 250.323C11.6509 251.053 11.5532 251.671 11.3578 252.176C11.1696 252.683 10.862 253.077 10.435 253.359C10.0153 253.634 9.45078 253.804 8.74153 253.869L8.80667 253.772C9.47249 253.873 10.0406 254.065 10.511 254.346C10.9815 254.628 11.3397 255.048 11.5858 255.604C11.8391 256.154 11.9657 256.9 11.9657 257.84C11.9657 258.837 11.7739 259.677 11.3904 260.356C11.014 261.029 10.464 261.538 9.74027 261.886C9.01655 262.224 8.14083 262.395 7.11314 262.395ZM15.5482 260.475H19.9014V247.817L20.39 248.25L15.8413 248.739L15.6459 247.014L20.3031 246.471H22.0834V260.475H25.9265V262.156H15.5482V260.475Z" fill="black"/>
</svg>
