<svg width="276" height="276" viewBox="0 0 276 276" fill="none" xmlns="http://www.w3.org/2000/svg">
<g clip-path="url(#clip0_104_815)">
<circle cx="138" cy="137" r="134" fill="#01423E"/>
<path d="M94.042 60.424C92.8047 60.8933 91.0767 61.1493 88.858 61.192C86.6393 61.192 83.802 61.128 80.346 61C78.5113 60.9147 76.7407 61.0427 75.034 61.384C73.37 61.7253 71.898 62.28 70.618 63.048C69.338 63.7733 68.314 64.712 67.546 65.864C66.778 67.016 66.394 68.3813 66.394 69.96C66.394 70.5147 66.4793 71.0907 66.65 71.688C66.8633 72.2853 67.162 72.8827 67.546 73.48C67.93 74.0347 68.4207 74.5467 69.018 75.016C69.6153 75.4853 70.298 75.848 71.066 76.104C71.3647 76.1893 71.578 76.2533 71.706 76.296C71.834 76.296 71.8767 76.3387 71.834 76.424C71.7913 76.5093 71.642 76.5733 71.386 76.616C71.1727 76.616 70.9167 76.5733 70.618 76.488C68.9967 75.976 67.6953 75.1013 66.714 73.864C65.7327 72.6267 65.1993 71.2827 65.114 69.832C65.0713 68.3813 65.3273 67.0373 65.882 65.8C66.4793 64.52 67.3753 63.4107 68.57 62.472C69.8073 61.5333 71.322 60.808 73.114 60.296C74.9487 59.784 77.082 59.5707 79.514 59.656C80.6233 59.6987 81.9247 59.784 83.418 59.912C84.954 60.04 86.4687 60.1467 87.962 60.232C89.4553 60.2747 90.8207 60.296 92.058 60.296C93.2953 60.2533 94.17 60.0827 94.682 59.784C95.1513 59.528 95.5567 59.3147 95.898 59.144C96.282 58.9307 96.5807 58.888 96.794 59.016C97.0073 59.144 97.0073 59.2933 96.794 59.464C96.5807 59.592 96.3033 59.8267 95.962 60.168C95.1513 60.936 94.3833 61.7253 93.658 62.536C92.9327 63.304 92.1647 64.2 91.354 65.224C90.3727 66.4187 89.5193 67.5067 88.794 68.488C88.1113 69.4267 87.4713 70.28 86.874 71.048H96.026C96.538 70.4507 97.1567 69.7467 97.882 68.936C98.65 68.0827 99.8233 66.9307 101.402 65.48C102.17 64.7547 102.938 64.0933 103.706 63.496C104.474 62.856 105.221 62.28 105.946 61.768C106.671 61.2133 107.333 60.744 107.93 60.36C108.57 59.9333 109.082 59.592 109.466 59.336C110.319 58.824 111.322 58.376 112.474 57.992C113.669 57.608 114.799 57.416 115.866 57.416C117.061 57.416 117.978 57.6507 118.618 58.12C119.301 58.5467 119.727 58.9947 119.898 59.464C120.111 60.0187 120.09 60.3387 119.834 60.424C119.749 60.4667 119.685 60.4453 119.642 60.36C119.642 60.232 119.599 60.0613 119.514 59.848C119.258 59.336 118.853 58.9093 118.298 58.568C117.743 58.2267 116.954 58.056 115.93 58.056C114.906 58.056 113.882 58.2907 112.858 58.76C111.834 59.1867 110.917 59.6773 110.106 60.232C109.338 60.8293 108.485 61.5547 107.546 62.408C106.65 63.2187 105.562 64.3067 104.282 65.672C103.429 66.568 102.575 67.5493 101.722 68.616C100.911 69.64 100.271 70.4507 99.802 71.048C100.655 71.0907 101.573 71.1333 102.554 71.176C103.535 71.176 104.325 71.2187 104.922 71.304C105.178 71.3467 105.477 71.3893 105.818 71.432C106.202 71.4747 106.394 71.5387 106.394 71.624C106.394 71.7947 106.223 71.88 105.882 71.88C105.541 71.8373 105.242 71.816 104.986 71.816C103.877 71.816 102.81 71.816 101.786 71.816C100.762 71.816 99.8873 71.8373 99.162 71.88C98.4367 72.776 97.6687 73.7787 96.858 74.888C96.0473 75.9547 95.2793 77 94.554 78.024C93.8713 79.048 93.2953 80.0293 92.826 80.968C92.3993 81.864 92.186 82.6107 92.186 83.208C92.186 83.592 92.314 83.8693 92.57 84.04C92.8687 84.2107 93.146 84.296 93.402 84.296C93.9567 84.296 94.5967 84.1467 95.322 83.848C96.09 83.5493 96.9647 83.0373 97.946 82.312C98.3727 81.9707 98.9487 81.5013 99.674 80.904C100.399 80.3067 100.997 79.7947 101.466 79.368C101.594 79.24 101.743 79.1333 101.914 79.048C102.127 78.92 102.277 78.8987 102.362 78.984C102.447 79.0693 102.405 79.2187 102.234 79.432C102.063 79.6027 101.935 79.7307 101.85 79.816C101.423 80.2 100.826 80.712 100.058 81.352C99.3327 81.992 98.7353 82.4827 98.266 82.824C98.0527 82.9947 97.7327 83.2293 97.306 83.528C96.922 83.784 96.4527 84.0613 95.898 84.36C95.386 84.616 94.81 84.8507 94.17 85.064C93.5727 85.2773 92.954 85.384 92.314 85.384C91.3753 85.384 90.6287 85.1493 90.074 84.68C89.5193 84.2107 89.242 83.5067 89.242 82.568C89.242 81.7147 89.4767 80.776 89.946 79.752C90.4153 78.728 90.97 77.7253 91.61 76.744C92.2927 75.72 92.9753 74.7813 93.658 73.928C94.3407 73.032 94.874 72.3493 95.258 71.88L86.298 71.944C84.762 73.864 83.226 75.6773 81.69 77.384C80.154 79.0907 78.554 80.6053 76.89 81.928C75.226 83.208 73.434 84.232 71.514 85C69.6367 85.768 67.5673 86.152 65.306 86.152C64.538 86.152 63.77 86.0667 63.002 85.896C62.234 85.7253 61.5513 85.4267 60.954 85C60.3567 84.616 59.866 84.104 59.482 83.464C59.098 82.824 58.906 82.056 58.906 81.16C58.906 80.3067 59.226 79.5387 59.866 78.856C60.4633 78.1307 61.2527 77.7893 62.234 77.832C62.874 77.9173 63.386 78.1733 63.77 78.6C64.1967 78.984 64.3673 79.5173 64.282 80.2C64.2393 80.9253 63.898 81.5653 63.258 82.12C63.0447 82.376 62.8527 82.632 62.682 82.888C62.5113 83.144 62.426 83.4213 62.426 83.72C62.5113 84.4027 62.8953 84.872 63.578 85.128C64.2607 85.4267 64.9433 85.576 65.626 85.576C67.3327 85.576 68.9753 85.0853 70.554 84.104C72.1753 83.1227 73.69 81.928 75.098 80.52C76.5487 79.112 77.8713 77.6187 79.066 76.04C80.3033 74.4613 81.37 73.096 82.266 71.944C81.754 71.944 81.114 71.9653 80.346 72.008C79.6207 72.008 78.7033 72.0293 77.594 72.072C77.3807 72.072 77.1033 72.072 76.762 72.072C76.4207 72.072 76.2927 71.9653 76.378 71.752C76.4207 71.624 76.6127 71.5387 76.954 71.496C77.338 71.4533 77.7647 71.4107 78.234 71.368C78.8313 71.2827 79.5353 71.24 80.346 71.24C81.1567 71.1973 82.0313 71.1547 82.97 71.112C83.8233 70.088 84.7407 69.0427 85.722 67.976C86.746 66.9093 87.77 65.9067 88.794 64.968C89.818 63.9867 90.778 63.112 91.674 62.344C92.6127 61.5333 93.402 60.9147 94.042 60.488V60.424ZM106.997 75.848C106.783 75.9333 106.378 76.1893 105.781 76.616C105.226 77 104.714 77.384 104.245 77.768C103.775 78.152 103.349 78.4933 102.965 78.792C102.623 79.0907 102.282 79.3893 101.941 79.688C101.428 80.1147 101.108 80.2853 100.98 80.2C100.895 80.1147 100.916 80.008 101.044 79.88C101.13 79.752 101.343 79.5173 101.684 79.176C101.855 79.0053 102.111 78.7707 102.453 78.472C102.837 78.1733 103.242 77.8533 103.669 77.512C104.095 77.1707 104.522 76.8293 104.949 76.488C105.418 76.1467 105.845 75.848 106.229 75.592C107.082 74.9947 107.765 74.6107 108.277 74.44C108.789 74.2693 109.343 74.184 109.941 74.184C110.623 74.184 111.007 74.248 111.093 74.376C111.178 74.504 111.029 74.7813 110.645 75.208C110.218 75.6773 109.706 76.2533 109.109 76.936C108.554 77.6187 107.957 78.3653 107.317 79.176C106.805 79.8587 106.314 80.52 105.845 81.16C105.418 81.8 105.119 82.2907 104.949 82.632C104.693 83.1867 104.671 83.5707 104.885 83.784C105.141 84.04 105.631 83.9973 106.357 83.656C107.082 83.272 107.807 82.824 108.533 82.312C109.301 81.7573 110.175 81.096 111.157 80.328C112.693 79.1333 113.973 78.1093 114.997 77.256C116.021 76.4027 117.045 75.5707 118.069 74.76C118.325 74.5467 118.581 74.376 118.837 74.248C119.093 74.12 119.455 74.056 119.925 74.056C120.479 74.056 120.863 74.12 121.077 74.248C121.333 74.3333 121.269 74.6107 120.885 75.08C120.287 75.8053 119.733 76.4667 119.221 77.064C118.709 77.6187 118.133 78.3227 117.493 79.176C116.383 80.5413 115.594 81.6293 115.125 82.44C114.698 83.1653 114.634 83.6347 114.933 83.848C115.231 84.0613 115.722 83.9973 116.405 83.656C116.746 83.4853 117.173 83.2293 117.685 82.888C118.239 82.5467 118.773 82.1627 119.285 81.736C119.925 81.224 120.501 80.7547 121.013 80.328C121.567 79.8587 122.015 79.4533 122.357 79.112C122.826 78.6427 123.125 78.4933 123.253 78.664C123.338 78.7493 123.295 78.8987 123.125 79.112C122.954 79.2827 122.826 79.4107 122.741 79.496C122.357 79.88 121.802 80.392 121.077 81.032C120.351 81.6293 119.605 82.2267 118.837 82.824C118.538 83.0373 118.175 83.2933 117.749 83.592C117.365 83.8907 116.917 84.168 116.405 84.424C115.935 84.68 115.423 84.8933 114.869 85.064C114.357 85.2773 113.845 85.384 113.333 85.384C112.01 85.384 111.349 84.872 111.349 83.848C111.349 83.3787 111.434 82.9307 111.605 82.504C111.818 82.0773 112.074 81.6507 112.373 81.224C112.714 80.712 113.162 80.1787 113.717 79.624C114.271 79.0267 114.826 78.4507 115.381 77.896L115.317 77.832C114.677 78.344 113.866 78.984 112.885 79.752C111.946 80.52 111.05 81.224 110.197 81.864C108.874 82.8453 107.637 83.6773 106.485 84.36C105.375 85.0427 104.33 85.384 103.349 85.384C102.666 85.384 102.133 85.2347 101.748 84.936C101.364 84.6373 101.194 84.1893 101.236 83.592C101.279 83.1227 101.428 82.6747 101.684 82.248C101.898 81.7787 102.154 81.352 102.453 80.968C103.093 80.1147 103.754 79.2827 104.437 78.472C105.162 77.6613 106.015 76.7867 106.997 75.848ZM143.113 78.728C143.113 78.9413 142.451 79.6453 141.128 80.84C140.062 81.7787 139.251 82.4613 138.697 82.888C136.478 84.552 134.643 85.384 133.193 85.384C132.254 85.384 131.614 85.0427 131.273 84.36C131.102 83.9333 131.017 83.1867 131.017 82.12C131.017 80.5413 130.675 79.88 129.993 80.136C130.419 79.752 131.059 79.56 131.913 79.56C133.065 79.56 133.769 80.2853 134.025 81.736C134.323 83.144 134.729 83.848 135.241 83.848C136.179 83.848 137.651 82.9947 139.657 81.288C141.705 79.5813 142.857 78.7067 143.113 78.664V78.728ZM140.425 75.848C140.425 77.128 139.763 77.768 138.441 77.768C137.459 77.768 136.969 77.5547 136.969 77.128C136.969 77.0427 137.033 76.8507 137.161 76.552C137.331 76.2107 137.417 75.9547 137.417 75.784C137.417 75.1867 137.097 74.888 136.457 74.888C134.878 74.888 132.19 76.616 128.393 80.072C124.638 83.528 122.312 85.256 121.416 85.256C120.904 85.256 120.563 85.192 120.392 85.064C120.392 85.0213 120.392 84.936 120.392 84.808C120.392 83.6987 121.907 81.2667 124.937 77.512V77.448C123.358 79.0267 122.398 79.816 122.056 79.816C121.971 79.816 121.928 79.7947 121.928 79.752C122.014 79.3253 123.081 78.2587 125.129 76.552C127.219 74.8453 128.521 73.992 129.033 73.992C129.843 73.992 130.249 74.248 130.249 74.76V74.888C129.139 76.4667 127.433 78.8133 125.129 81.928L125.257 81.992C128.073 79.4747 129.993 77.832 131.017 77.064C133.705 75.0587 135.966 74.056 137.801 74.056C139.55 74.056 140.425 74.6533 140.425 75.848ZM147.434 75.848C147.221 75.9333 146.815 76.1893 146.218 76.616C145.663 77 145.151 77.384 144.682 77.768C144.213 78.152 143.786 78.4933 143.402 78.792C143.061 79.0907 142.719 79.3893 142.378 79.688C141.866 80.1147 141.546 80.2853 141.418 80.2C141.333 80.1147 141.354 80.008 141.482 79.88C141.567 79.752 141.781 79.5173 142.122 79.176C142.293 79.0053 142.549 78.7707 142.89 78.472C143.274 78.1733 143.679 77.8533 144.106 77.512C144.533 77.1707 144.959 76.8293 145.386 76.488C145.855 76.1467 146.282 75.848 146.666 75.592C147.519 74.9947 148.202 74.6107 148.714 74.44C149.226 74.2693 149.781 74.184 150.378 74.184C151.061 74.184 151.445 74.248 151.53 74.376C151.615 74.504 151.466 74.7813 151.082 75.208C150.655 75.6773 150.143 76.2533 149.546 76.936C148.991 77.6187 148.394 78.3653 147.754 79.176C147.242 79.8587 146.751 80.52 146.282 81.16C145.855 81.8 145.557 82.2907 145.386 82.632C145.13 83.1867 145.109 83.5707 145.322 83.784C145.578 84.04 146.069 83.9973 146.794 83.656C147.519 83.272 148.245 82.824 148.97 82.312C149.738 81.7573 150.613 81.096 151.594 80.328C153.13 79.1333 154.41 78.1093 155.434 77.256C156.458 76.4027 157.482 75.5707 158.506 74.76C158.762 74.5467 159.018 74.376 159.274 74.248C159.53 74.12 159.893 74.056 160.362 74.056C160.917 74.056 161.301 74.12 161.514 74.248C161.77 74.3333 161.706 74.6107 161.322 75.08C160.725 75.8053 160.17 76.4667 159.658 77.064C159.146 77.6187 158.57 78.3227 157.93 79.176C156.821 80.5413 156.031 81.6293 155.562 82.44C155.135 83.1653 155.071 83.6347 155.37 83.848C155.669 84.0613 156.159 83.9973 156.842 83.656C157.183 83.4853 157.61 83.2293 158.122 82.888C158.677 82.5467 159.21 82.1627 159.722 81.736C160.362 81.224 160.938 80.7547 161.45 80.328C162.005 79.8587 162.453 79.4533 162.794 79.112C163.263 78.6427 163.562 78.4933 163.69 78.664C163.775 78.7493 163.733 78.8987 163.562 79.112C163.391 79.2827 163.263 79.4107 163.178 79.496C162.794 79.88 162.239 80.392 161.514 81.032C160.789 81.6293 160.042 82.2267 159.274 82.824C158.975 83.0373 158.613 83.2933 158.186 83.592C157.802 83.8907 157.354 84.168 156.842 84.424C156.373 84.68 155.861 84.8933 155.306 85.064C154.794 85.2773 154.282 85.384 153.77 85.384C152.447 85.384 151.786 84.872 151.786 83.848C151.786 83.3787 151.871 82.9307 152.042 82.504C152.255 82.0773 152.511 81.6507 152.81 81.224C153.151 80.712 153.599 80.1787 154.154 79.624C154.709 79.0267 155.263 78.4507 155.818 77.896L155.754 77.832C155.114 78.344 154.303 78.984 153.322 79.752C152.383 80.52 151.487 81.224 150.634 81.864C149.311 82.8453 148.074 83.6773 146.922 84.36C145.813 85.0427 144.767 85.384 143.786 85.384C143.103 85.384 142.57 85.2347 142.186 84.936C141.802 84.6373 141.631 84.1893 141.674 83.592C141.717 83.1227 141.866 82.6747 142.122 82.248C142.335 81.7787 142.591 81.352 142.89 80.968C143.53 80.1147 144.191 79.2827 144.874 78.472C145.599 77.6613 146.453 76.7867 147.434 75.848ZM166.014 76.168C166.867 75.4853 167.635 74.9733 168.318 74.632C169.001 74.248 169.683 74.056 170.366 74.056C170.963 74.056 171.369 74.2053 171.582 74.504C171.838 74.8027 171.966 75.1227 171.966 75.464C171.966 75.848 171.838 76.2533 171.582 76.68C171.369 77.1067 171.049 77.6187 170.622 78.216C170.153 78.856 169.619 79.56 169.022 80.328C168.425 81.096 167.955 81.736 167.614 82.248L167.678 82.312C168.446 81.672 169.342 80.9253 170.366 80.072C171.39 79.2187 172.457 78.3653 173.566 77.512C174.675 76.6587 175.87 75.8693 177.15 75.144C178.43 74.4187 179.539 74.056 180.478 74.056C181.289 74.056 181.843 74.2267 182.142 74.568C182.483 74.9093 182.611 75.3573 182.526 75.912C182.441 76.424 182.142 77 181.63 77.64C181.118 78.28 180.585 78.92 180.03 79.56C179.475 80.2 179.027 80.7333 178.686 81.16C178.345 81.5867 178.025 81.992 177.726 82.376L177.79 82.44C178.515 81.8 179.411 81.032 180.478 80.136C181.587 79.24 182.697 78.3653 183.806 77.512C184.915 76.6587 186.11 75.8693 187.39 75.144C188.67 74.4187 189.801 74.056 190.782 74.056C191.507 74.056 192.041 74.2267 192.382 74.568C192.723 74.8667 192.851 75.272 192.766 75.784C192.681 76.3813 192.361 77.0213 191.806 77.704C191.251 78.3867 190.718 79.048 190.206 79.688C189.694 80.2853 189.267 80.84 188.926 81.352C188.585 81.8213 188.307 82.2053 188.094 82.504C187.625 83.2293 187.539 83.6987 187.838 83.912C188.009 84.04 188.243 84.0613 188.542 83.976C188.841 83.8907 189.118 83.784 189.374 83.656C189.758 83.4427 190.185 83.208 190.654 82.952C191.123 82.6533 191.721 82.2267 192.446 81.672C193.001 81.2453 193.555 80.7973 194.11 80.328C194.707 79.816 195.177 79.3893 195.518 79.048C195.945 78.664 196.222 78.536 196.35 78.664C196.435 78.792 196.265 79.0693 195.838 79.496C195.539 79.7947 194.985 80.3067 194.174 81.032C193.406 81.7147 192.681 82.312 191.998 82.824C191.657 83.08 191.251 83.3573 190.782 83.656C190.355 83.9547 189.886 84.232 189.374 84.488C188.862 84.744 188.329 84.9573 187.774 85.128C187.262 85.2987 186.75 85.384 186.238 85.384C184.873 85.384 184.233 84.8293 184.318 83.72C184.361 82.9947 184.681 82.248 185.278 81.48C185.875 80.6693 186.451 79.9227 187.006 79.24C187.475 78.6427 187.923 78.088 188.35 77.576C188.819 77.064 189.267 76.5733 189.694 76.104C189.822 75.9333 189.907 75.7627 189.95 75.592C189.993 75.4213 189.929 75.2933 189.758 75.208C189.587 75.1227 189.353 75.1227 189.054 75.208C188.755 75.2933 188.435 75.4213 188.094 75.592C187.497 75.8907 186.771 76.3173 185.918 76.872C185.065 77.384 184.126 78.0453 183.102 78.856C182.377 79.4107 181.737 79.9227 181.182 80.392C180.627 80.8613 180.073 81.3307 179.518 81.8C178.963 82.2267 178.387 82.6747 177.79 83.144C177.235 83.6133 176.617 84.1253 175.934 84.68C175.422 85.064 174.867 85.256 174.27 85.256C173.758 85.256 173.438 85.192 173.31 85.064C173.182 84.936 173.225 84.6587 173.438 84.232C173.779 83.5493 174.27 82.7387 174.91 81.8C175.593 80.8187 176.233 79.9653 176.83 79.24C177.385 78.5573 177.918 77.96 178.43 77.448C178.942 76.8933 179.305 76.4453 179.518 76.104C179.646 75.9333 179.71 75.7627 179.71 75.592C179.753 75.4213 179.667 75.2933 179.454 75.208C179.155 75.1227 178.622 75.2507 177.854 75.592C177.257 75.8907 176.51 76.3173 175.614 76.872C174.761 77.4267 173.843 78.088 172.862 78.856C172.137 79.4107 171.497 79.9227 170.942 80.392C170.387 80.8613 169.833 81.3307 169.278 81.8C168.723 82.2267 168.147 82.6747 167.55 83.144C166.995 83.6133 166.377 84.1253 165.694 84.68C165.182 85.064 164.627 85.256 164.03 85.256C163.561 85.256 163.241 85.192 163.07 85.064C162.899 84.9787 162.942 84.7013 163.198 84.232C163.411 83.8053 163.817 83.1653 164.414 82.312C165.011 81.416 165.545 80.6267 166.014 79.944C166.483 79.2613 166.931 78.664 167.358 78.152C167.827 77.5973 168.233 77.0853 168.574 76.616C169.001 76.0613 169.15 75.6987 169.022 75.528C168.851 75.3147 168.531 75.336 168.062 75.592C167.678 75.8053 167.251 76.0613 166.782 76.36C166.355 76.6587 165.95 76.9787 165.566 77.32C165.139 77.6613 164.691 78.0453 164.222 78.472C163.753 78.8987 163.283 79.3253 162.814 79.752C162.217 80.264 161.854 80.456 161.726 80.328C161.641 80.2 161.961 79.7947 162.686 79.112C163.07 78.7707 163.561 78.3227 164.158 77.768C164.798 77.1707 165.417 76.6373 166.014 76.168ZM207.98 76.488C208.748 75.6773 209.409 75.08 209.964 74.696C210.561 74.2693 211.116 74.056 211.628 74.056C212.311 74.0133 212.695 74.0773 212.78 74.248C212.908 74.4187 212.801 74.696 212.46 75.08C212.033 75.5493 211.5 76.168 210.86 76.936C210.22 77.6613 209.559 78.4507 208.876 79.304C208.449 79.816 208.044 80.3493 207.66 80.904C207.276 81.416 206.935 81.928 206.636 82.44C206.209 83.208 206.145 83.6987 206.444 83.912C206.615 84.04 206.828 84.0613 207.084 83.976C207.383 83.8907 207.66 83.784 207.916 83.656C208.257 83.4853 208.684 83.2293 209.196 82.888C209.751 82.504 210.284 82.0987 210.796 81.672C211.479 81.1173 212.076 80.6267 212.588 80.2C213.1 79.7733 213.527 79.3893 213.868 79.048C214.081 78.8773 214.252 78.7493 214.38 78.664C214.551 78.536 214.679 78.5147 214.764 78.6C214.892 78.728 214.615 79.112 213.932 79.752C213.505 80.136 212.951 80.6267 212.268 81.224C211.585 81.8213 210.945 82.3547 210.348 82.824C209.708 83.336 208.897 83.8907 207.916 84.488C206.935 85.0853 205.911 85.384 204.844 85.384C204.247 85.384 203.799 85.256 203.5 85C203.201 84.744 203.031 84.424 202.988 84.04C202.945 83.6987 203.009 83.3147 203.18 82.888C203.351 82.4613 203.585 82.0773 203.884 81.736L203.82 81.672C203.393 82.056 202.903 82.4613 202.348 82.888C201.793 83.272 201.196 83.656 200.556 84.04C199.959 84.3813 199.319 84.68 198.636 84.936C197.996 85.192 197.377 85.3413 196.78 85.384C196.055 85.4267 195.415 85.2773 194.86 84.936C194.263 84.552 194.028 83.848 194.156 82.824C194.241 82.3547 194.412 81.864 194.668 81.352C194.924 80.7973 195.351 80.1787 195.948 79.496L195.884 79.432C195.799 79.5173 195.692 79.624 195.564 79.752C195.436 79.88 195.265 80.0293 195.052 80.2C194.753 80.4133 194.561 80.4773 194.476 80.392C194.348 80.2213 194.647 79.816 195.372 79.176C195.457 79.0907 195.713 78.8773 196.14 78.536C196.567 78.152 196.951 77.8533 197.292 77.64C197.633 77.4267 198.06 77.1707 198.572 76.872C199.084 76.5307 199.639 76.1893 200.236 75.848C201.473 75.208 202.625 74.7173 203.692 74.376C204.801 74.0347 205.783 73.928 206.636 74.056C207.276 74.1413 207.703 74.44 207.916 74.952C208.172 75.4213 208.193 75.9333 207.98 76.488ZM206.38 74.696C205.74 74.696 204.887 75.08 203.82 75.848C202.753 76.616 201.644 77.576 200.492 78.728C199.169 80.008 198.209 81.0747 197.612 81.928C197.057 82.7387 196.823 83.3573 196.908 83.784C196.951 84.2107 197.228 84.424 197.74 84.424C198.337 84.424 199.169 84.1253 200.236 83.528C201.303 82.9307 202.263 82.2267 203.116 81.416C203.628 80.9893 204.14 80.4987 204.652 79.944C205.164 79.3893 205.633 78.856 206.06 78.344C206.487 77.832 206.828 77.3627 207.084 76.936C207.383 76.4667 207.532 76.104 207.532 75.848C207.575 75.08 207.191 74.696 206.38 74.696ZM132.028 139.848C131.814 139.933 131.409 140.189 130.812 140.616C130.257 141 129.745 141.384 129.276 141.768C128.806 142.152 128.38 142.493 127.996 142.792C127.654 143.091 127.313 143.389 126.972 143.688C126.46 144.115 126.14 144.285 126.012 144.2C125.926 144.115 125.948 144.008 126.076 143.88C126.161 143.752 126.374 143.517 126.716 143.176C126.886 143.005 127.142 142.771 127.484 142.472C127.868 142.173 128.273 141.853 128.7 141.512C129.126 141.171 129.553 140.829 129.98 140.488C130.449 140.147 130.876 139.848 131.26 139.592C132.113 138.995 132.796 138.611 133.308 138.44C133.82 138.269 134.374 138.184 134.972 138.184C135.654 138.184 136.038 138.248 136.124 138.376C136.209 138.504 136.06 138.781 135.676 139.208C135.249 139.677 134.737 140.253 134.14 140.936C133.585 141.619 132.988 142.365 132.348 143.176C131.836 143.859 131.345 144.52 130.876 145.16C130.449 145.8 130.15 146.291 129.98 146.632C129.724 147.187 129.702 147.571 129.916 147.784C130.172 148.04 130.662 147.997 131.388 147.656C132.113 147.272 132.838 146.824 133.564 146.312C134.332 145.757 135.206 145.096 136.188 144.328C137.724 143.133 139.004 142.109 140.028 141.256C141.052 140.403 142.076 139.571 143.1 138.76C143.356 138.547 143.612 138.376 143.868 138.248C144.124 138.12 144.486 138.056 144.956 138.056C145.51 138.056 145.894 138.12 146.108 138.248C146.364 138.333 146.3 138.611 145.916 139.08C145.318 139.805 144.764 140.467 144.252 141.064C143.74 141.619 143.164 142.323 142.524 143.176C141.414 144.541 140.625 145.629 140.156 146.44C139.729 147.165 139.665 147.635 139.964 147.848C140.262 148.061 140.753 147.997 141.436 147.656C141.777 147.485 142.204 147.229 142.716 146.888C143.27 146.547 143.804 146.163 144.316 145.736C144.956 145.224 145.532 144.755 146.044 144.328C146.598 143.859 147.046 143.453 147.388 143.112C147.857 142.643 148.156 142.493 148.284 142.664C148.369 142.749 148.326 142.899 148.156 143.112C147.985 143.283 147.857 143.411 147.772 143.496C147.388 143.88 146.833 144.392 146.108 145.032C145.382 145.629 144.636 146.227 143.868 146.824C143.569 147.037 143.206 147.293 142.78 147.592C142.396 147.891 141.948 148.168 141.436 148.424C140.966 148.68 140.454 148.893 139.9 149.064C139.388 149.277 138.876 149.384 138.364 149.384C137.041 149.384 136.38 148.872 136.38 147.848C136.38 147.379 136.465 146.931 136.636 146.504C136.849 146.077 137.105 145.651 137.404 145.224C137.745 144.712 138.193 144.179 138.748 143.624C139.302 143.027 139.857 142.451 140.412 141.896L140.348 141.832C139.708 142.344 138.897 142.984 137.916 143.752C136.977 144.52 136.081 145.224 135.228 145.864C133.905 146.845 132.668 147.677 131.516 148.36C130.406 149.043 129.361 149.384 128.38 149.384C127.697 149.384 127.164 149.235 126.78 148.936C126.396 148.637 126.225 148.189 126.268 147.592C126.31 147.123 126.46 146.675 126.716 146.248C126.929 145.779 127.185 145.352 127.484 144.968C128.124 144.115 128.785 143.283 129.468 142.472C130.193 141.661 131.046 140.787 132.028 139.848ZM65.775 195.104C65.775 194.507 65.903 193.888 66.159 193.248C66.415 192.608 66.735 192.011 67.119 191.456C66.3083 190.859 65.647 190.155 65.135 189.344C64.623 188.491 64.367 187.595 64.367 186.656C64.367 185.376 64.815 184.352 65.711 183.584C66.6497 182.816 67.8017 182.389 69.167 182.304C70.4043 182.219 71.7483 182.475 73.199 183.072C74.6923 183.669 75.951 184.587 76.975 185.824C77.7857 185.696 78.575 185.589 79.343 185.504C80.1537 185.419 80.943 185.397 81.711 185.44C83.887 185.525 85.5297 185.973 86.639 186.784C87.7483 187.552 88.303 188.448 88.303 189.472C88.303 190.197 88.047 190.88 87.535 191.52C87.023 192.117 86.319 192.651 85.423 193.12C84.527 193.589 83.503 193.973 82.351 194.272C81.199 194.528 79.983 194.656 78.703 194.656C77.039 194.656 75.439 194.528 73.903 194.272C72.367 193.973 70.9803 193.525 69.743 192.928C69.5723 193.141 69.3803 193.419 69.167 193.76C68.9963 194.101 68.8683 194.443 68.783 194.784C68.527 195.509 68.463 196.192 68.591 196.832C68.9323 196.747 69.423 196.683 70.063 196.64C70.703 196.597 71.2577 196.597 71.727 196.64C72.6657 196.683 73.4763 196.832 74.159 197.088C74.8843 197.301 75.2257 197.685 75.183 198.24C75.183 198.709 74.799 199.029 74.031 199.2C73.263 199.371 72.4737 199.456 71.663 199.456C70.6817 199.456 69.679 199.307 68.655 199.008C67.6737 198.709 66.9697 198.283 66.543 197.728C65.6897 198.069 64.7297 198.581 63.663 199.264C62.5963 199.947 61.615 200.715 60.719 201.568C59.695 202.549 58.8203 203.659 58.095 204.896C57.4123 206.133 57.0283 207.371 56.943 208.608C56.8577 210.101 57.3057 211.253 58.287 212.064C59.311 212.875 60.6123 213.28 62.191 213.28C64.111 213.28 65.8177 212.939 67.311 212.256C68.847 211.573 70.255 210.827 71.535 210.016C72.2603 209.504 73.007 208.928 73.775 208.288C74.5857 207.605 75.1403 207.093 75.439 206.752C75.5243 206.667 75.631 206.56 75.759 206.432C75.887 206.304 76.015 206.283 76.143 206.368C76.2283 206.453 76.2283 206.581 76.143 206.752C76.1003 206.88 76.015 206.987 75.887 207.072C75.7163 207.243 75.4603 207.477 75.119 207.776C74.8203 208.075 74.479 208.395 74.095 208.736C73.711 209.077 73.3057 209.419 72.879 209.76C72.495 210.059 72.1323 210.315 71.791 210.528C70.4683 211.467 68.9963 212.277 67.375 212.96C65.7963 213.685 64.047 214.091 62.127 214.176C59.3537 214.261 57.135 213.835 55.471 212.896C53.8497 212 53.039 210.528 53.039 208.48C53.039 207.328 53.3377 206.176 53.935 205.024C54.575 203.872 55.471 202.805 56.623 201.824C57.775 200.8 59.1617 199.904 60.783 199.136C62.447 198.325 64.2817 197.685 66.287 197.216C65.9457 196.661 65.775 195.979 65.775 195.168V195.104ZM78.639 194.016C79.663 194.016 80.6657 193.909 81.647 193.696C82.6283 193.483 83.4817 193.184 84.207 192.8C84.975 192.416 85.5937 191.947 86.063 191.392C86.5323 190.837 86.767 190.197 86.767 189.472C86.8523 188.704 86.5323 187.957 85.807 187.232C85.0817 186.464 83.7803 186.037 81.903 185.952C80.495 185.952 79.0443 186.208 77.551 186.72C77.9777 187.573 78.255 188.512 78.383 189.536C78.4683 190.091 78.4897 190.517 78.447 190.816C78.4043 191.115 78.3403 191.243 78.255 191.2C78.1697 191.157 78.127 191.072 78.127 190.944C78.1697 190.773 78.1057 190.432 77.935 189.92C77.807 189.408 77.615 188.917 77.359 188.448C77.103 187.979 76.8257 187.531 76.527 187.104C75.9297 187.403 75.183 187.851 74.287 188.448C73.391 189.045 72.5803 189.685 71.855 190.368C71.215 190.965 70.6177 191.627 70.063 192.352C71.215 192.949 72.5377 193.376 74.031 193.632C75.5243 193.888 77.039 194.016 78.575 194.016H78.639ZM75.759 186.08C74.9057 185.099 73.8603 184.309 72.623 183.712C71.4283 183.072 70.2337 182.795 69.039 182.88C67.9297 182.965 66.991 183.328 66.223 183.968C65.455 184.565 65.071 185.44 65.071 186.592C65.071 187.403 65.2843 188.171 65.711 188.896C66.1803 189.579 66.799 190.24 67.567 190.88C67.951 190.368 68.335 189.941 68.719 189.6C69.615 188.789 70.6817 188.085 71.919 187.488C73.199 186.891 74.4577 186.421 75.695 186.08H75.759ZM68.783 197.344C68.911 197.771 69.2737 198.112 69.871 198.368C70.4683 198.624 71.087 198.773 71.727 198.816C72.3243 198.859 72.8363 198.816 73.263 198.688C73.7323 198.56 73.9883 198.347 74.031 198.048C74.031 197.749 73.7537 197.536 73.199 197.408C72.687 197.28 72.1963 197.195 71.727 197.152C71.3857 197.152 70.9163 197.152 70.319 197.152C69.7217 197.152 69.2097 197.195 68.783 197.28V197.344ZM95.005 205.792C94.877 206.389 93.4903 207.712 90.845 209.76C88.7117 211.424 86.9197 212.256 85.469 212.256C84.2743 212.256 83.677 211.723 83.677 210.656C83.677 209.888 84.4237 208.501 85.917 206.496C83.7837 208.416 82.3543 209.632 81.629 210.144C79.709 211.552 78.109 212.256 76.829 212.256C75.5917 212.256 74.973 211.765 74.973 210.784C74.973 210.528 74.9943 210.272 75.037 210.016H75.101C75.4423 208.907 76.2103 208.352 77.405 208.352C78.1303 208.352 78.493 208.565 78.493 208.992C78.493 209.12 78.4503 209.333 78.365 209.632C78.2797 209.931 78.237 210.165 78.237 210.336C78.237 210.379 78.2797 210.528 78.365 210.784C78.493 210.827 78.621 210.848 78.749 210.848C79.5597 210.848 81.5863 209.483 84.829 206.752C86.8343 205.003 88.861 203.253 90.909 201.504C91.2503 201.248 91.933 201.12 92.957 201.12C93.2983 201.12 93.469 201.205 93.469 201.376C93.469 201.461 92.381 202.805 90.205 205.408C88.029 208.011 86.941 209.653 86.941 210.336C87.069 210.72 87.2183 210.912 87.389 210.912C88.1143 210.912 89.4157 210.101 91.293 208.48C93.1703 206.816 94.4077 205.92 95.005 205.792ZM99.434 202.848C99.2207 202.933 98.8153 203.189 98.218 203.616C97.6633 204 97.1513 204.384 96.682 204.768C96.2127 205.152 95.786 205.493 95.402 205.792C95.0607 206.091 94.7193 206.389 94.378 206.688C93.866 207.115 93.546 207.285 93.418 207.2C93.3327 207.115 93.354 207.008 93.482 206.88C93.5673 206.752 93.7807 206.517 94.122 206.176C94.2927 206.005 94.5487 205.771 94.89 205.472C95.274 205.173 95.6793 204.853 96.106 204.512C96.5327 204.171 96.9593 203.829 97.386 203.488C97.8553 203.147 98.282 202.848 98.666 202.592C99.5193 201.995 100.202 201.611 100.714 201.44C101.226 201.269 101.781 201.184 102.378 201.184C103.061 201.184 103.445 201.248 103.53 201.376C103.615 201.504 103.466 201.781 103.082 202.208C102.655 202.677 102.143 203.253 101.546 203.936C100.991 204.619 100.394 205.365 99.754 206.176C99.242 206.859 98.7513 207.52 98.282 208.16C97.8553 208.8 97.5567 209.291 97.386 209.632C97.13 210.187 97.1087 210.571 97.322 210.784C97.578 211.04 98.0687 210.997 98.794 210.656C99.5193 210.272 100.245 209.824 100.97 209.312C101.738 208.757 102.613 208.096 103.594 207.328C105.13 206.133 106.41 205.109 107.434 204.256C108.458 203.403 109.482 202.571 110.506 201.76C110.762 201.547 111.018 201.376 111.274 201.248C111.53 201.12 111.893 201.056 112.362 201.056C112.917 201.056 113.301 201.12 113.514 201.248C113.77 201.333 113.706 201.611 113.322 202.08C112.725 202.805 112.17 203.467 111.658 204.064C111.146 204.619 110.57 205.323 109.93 206.176C108.821 207.541 108.031 208.629 107.562 209.44C107.135 210.165 107.071 210.635 107.37 210.848C107.669 211.061 108.159 210.997 108.842 210.656C109.183 210.485 109.61 210.229 110.122 209.888C110.677 209.547 111.21 209.163 111.722 208.736C112.362 208.224 112.938 207.755 113.45 207.328C114.005 206.859 114.453 206.453 114.794 206.112C115.263 205.643 115.562 205.493 115.69 205.664C115.775 205.749 115.733 205.899 115.562 206.112C115.391 206.283 115.263 206.411 115.178 206.496C114.794 206.88 114.239 207.392 113.514 208.032C112.789 208.629 112.042 209.227 111.274 209.824C110.975 210.037 110.613 210.293 110.186 210.592C109.802 210.891 109.354 211.168 108.842 211.424C108.373 211.68 107.861 211.893 107.306 212.064C106.794 212.277 106.282 212.384 105.77 212.384C104.447 212.384 103.786 211.872 103.786 210.848C103.786 210.379 103.871 209.931 104.042 209.504C104.255 209.077 104.511 208.651 104.81 208.224C105.151 207.712 105.599 207.179 106.154 206.624C106.709 206.027 107.263 205.451 107.818 204.896L107.754 204.832C107.114 205.344 106.303 205.984 105.322 206.752C104.383 207.52 103.487 208.224 102.634 208.864C101.311 209.845 100.074 210.677 98.922 211.36C97.8127 212.043 96.7673 212.384 95.786 212.384C95.1033 212.384 94.57 212.235 94.186 211.936C93.802 211.637 93.6313 211.189 93.674 210.592C93.7167 210.123 93.866 209.675 94.122 209.248C94.3353 208.779 94.5913 208.352 94.89 207.968C95.53 207.115 96.1913 206.283 96.874 205.472C97.5993 204.661 98.4527 203.787 99.434 202.848ZM117.95 209.696C118.547 209.568 119.102 209.525 119.614 209.568C120.254 209.653 120.851 209.867 121.406 210.208C122.003 210.507 122.43 211.019 122.686 211.744C123.198 211.445 123.795 211.083 124.478 210.656C125.203 210.187 125.865 209.717 126.462 209.248C127.187 208.693 127.913 208.117 128.638 207.52C129.363 206.923 129.939 206.432 130.366 206.048C130.835 205.664 131.134 205.536 131.262 205.664C131.39 205.792 131.113 206.155 130.43 206.752C130.046 207.093 129.513 207.541 128.83 208.096C128.19 208.651 127.529 209.184 126.846 209.696C126.121 210.208 125.417 210.699 124.734 211.168C124.051 211.595 123.411 211.979 122.814 212.32C122.899 212.576 122.942 212.896 122.942 213.28C122.942 214.432 122.579 215.691 121.854 217.056C121.171 218.464 120.297 219.851 119.23 221.216C118.206 222.624 117.075 223.947 115.838 225.184C114.643 226.464 113.555 227.531 112.574 228.384C111.209 229.579 109.779 230.752 108.286 231.904C106.75 233.056 105.235 234.08 103.742 234.976C102.249 235.872 100.841 236.576 99.518 237.088C98.1953 237.643 97.0647 237.92 96.126 237.92C95.102 237.92 94.398 237.685 94.014 237.216C93.63 236.747 93.438 236.235 93.438 235.68C93.438 234.101 94.3767 232.331 96.254 230.368C98.1313 228.448 100.499 226.4 103.358 224.224C105.875 222.347 108.201 220.725 110.334 219.36C112.467 218.037 114.302 216.907 115.838 215.968C116.734 215.413 117.587 214.88 118.398 214.368C119.209 213.899 119.977 213.429 120.702 212.96C120.787 212.107 120.659 211.424 120.318 210.912C120.019 210.4 119.571 210.144 118.974 210.144C117.993 210.144 117.097 210.421 116.286 210.976C115.518 211.531 114.878 212.043 114.366 212.512C114.281 212.597 114.174 212.704 114.046 212.832C113.875 212.96 113.726 212.96 113.598 212.832C113.47 212.704 113.449 212.533 113.534 212.32C113.577 212.107 113.662 211.915 113.79 211.744C114.003 211.445 114.345 211.147 114.814 210.848C115.326 210.507 115.881 210.165 116.478 209.824C117.715 209.184 118.782 208.651 119.678 208.224C120.617 207.797 121.641 207.285 122.75 206.688C123.859 206.005 124.777 205.387 125.502 204.832C126.27 204.277 126.91 203.701 127.422 203.104C127.507 203.019 127.571 202.933 127.614 202.848C127.699 202.72 127.721 202.613 127.678 202.528C127.635 202.443 127.507 202.443 127.294 202.528C126.483 202.997 125.523 203.403 124.414 203.744C123.305 204.085 122.345 204.256 121.534 204.256C119.955 204.256 118.91 203.851 118.398 203.04C117.843 203.637 117.267 204.256 116.67 204.896C116.073 205.536 115.518 206.091 115.006 206.56C114.793 206.773 114.643 206.901 114.558 206.944C114.473 206.944 114.387 206.901 114.302 206.816C114.174 206.731 114.302 206.496 114.686 206.112C115.155 205.643 115.71 205.067 116.35 204.384C117.033 203.701 117.63 203.061 118.142 202.464C118.099 202.208 118.121 201.909 118.206 201.568C118.291 201.184 118.483 200.821 118.782 200.48C119.081 200.139 119.422 199.904 119.806 199.776C120.19 199.605 120.553 199.52 120.894 199.52C121.15 199.52 121.385 199.584 121.598 199.712C121.854 199.797 121.982 199.947 121.982 200.16C121.854 200.245 121.662 200.352 121.406 200.48C121.193 200.608 121.043 200.843 120.958 201.184C120.873 201.44 120.937 201.717 121.15 202.016C121.363 202.315 121.897 202.464 122.75 202.464C123.646 202.464 124.542 202.379 125.438 202.208C126.377 201.995 127.209 201.717 127.934 201.376C128.19 201.291 128.446 201.227 128.702 201.184C128.958 201.141 129.129 201.184 129.214 201.312C129.385 201.483 129.385 201.739 129.214 202.08C129.043 202.421 128.915 202.656 128.83 202.784C128.361 203.381 127.678 204.064 126.782 204.832C125.886 205.6 124.734 206.368 123.326 207.136C122.217 207.733 121.235 208.203 120.382 208.544C119.529 208.885 118.718 209.269 117.95 209.696ZM96.446 237.216C97.342 237.216 98.366 236.917 99.518 236.32C100.67 235.765 101.886 235.019 103.166 234.08C104.446 233.141 105.747 232.075 107.07 230.88C108.393 229.685 109.651 228.448 110.846 227.168C111.699 226.272 112.638 225.227 113.662 224.032C114.686 222.837 115.667 221.6 116.606 220.32C117.587 219.04 118.441 217.803 119.166 216.608C119.891 215.456 120.361 214.475 120.574 213.664C119.891 214.133 119.166 214.603 118.398 215.072C117.63 215.541 116.883 216.011 116.158 216.48C114.622 217.461 112.766 218.656 110.59 220.064C108.414 221.472 106.131 223.072 103.742 224.864C101.225 226.784 99.1767 228.661 97.598 230.496C96.0193 232.331 95.1447 233.995 94.974 235.488C94.9313 235.915 94.9953 236.299 95.166 236.64C95.3367 237.024 95.742 237.216 96.382 237.216H96.446ZM142.855 203.488C143.623 202.677 144.284 202.08 144.839 201.696C145.436 201.269 145.991 201.056 146.503 201.056C147.186 201.013 147.57 201.077 147.655 201.248C147.783 201.419 147.676 201.696 147.335 202.08C146.908 202.549 146.375 203.168 145.735 203.936C145.095 204.661 144.434 205.451 143.751 206.304C143.324 206.816 142.919 207.349 142.535 207.904C142.151 208.416 141.81 208.928 141.511 209.44C141.084 210.208 141.02 210.699 141.319 210.912C141.49 211.04 141.703 211.061 141.959 210.976C142.258 210.891 142.535 210.784 142.791 210.656C143.132 210.485 143.559 210.229 144.071 209.888C144.626 209.504 145.159 209.099 145.671 208.672C146.354 208.117 146.951 207.627 147.463 207.2C147.975 206.773 148.402 206.389 148.743 206.048C148.956 205.877 149.127 205.749 149.255 205.664C149.426 205.536 149.554 205.515 149.639 205.6C149.767 205.728 149.49 206.112 148.807 206.752C148.38 207.136 147.826 207.627 147.143 208.224C146.46 208.821 145.82 209.355 145.223 209.824C144.583 210.336 143.772 210.891 142.791 211.488C141.81 212.085 140.786 212.384 139.719 212.384C139.122 212.384 138.674 212.256 138.375 212C138.076 211.744 137.906 211.424 137.863 211.04C137.82 210.699 137.884 210.315 138.055 209.888C138.226 209.461 138.46 209.077 138.759 208.736L138.695 208.672C138.268 209.056 137.778 209.461 137.223 209.888C136.668 210.272 136.071 210.656 135.431 211.04C134.834 211.381 134.194 211.68 133.511 211.936C132.871 212.192 132.252 212.341 131.655 212.384C130.93 212.427 130.29 212.277 129.735 211.936C129.138 211.552 128.903 210.848 129.031 209.824C129.116 209.355 129.287 208.864 129.543 208.352C129.799 207.797 130.226 207.179 130.823 206.496L130.759 206.432C130.674 206.517 130.567 206.624 130.439 206.752C130.311 206.88 130.14 207.029 129.927 207.2C129.628 207.413 129.436 207.477 129.351 207.392C129.223 207.221 129.522 206.816 130.247 206.176C130.332 206.091 130.588 205.877 131.015 205.536C131.442 205.152 131.826 204.853 132.167 204.64C132.508 204.427 132.935 204.171 133.447 203.872C133.959 203.531 134.514 203.189 135.111 202.848C136.348 202.208 137.5 201.717 138.567 201.376C139.676 201.035 140.658 200.928 141.511 201.056C142.151 201.141 142.578 201.44 142.791 201.952C143.047 202.421 143.068 202.933 142.855 203.488ZM141.255 201.696C140.615 201.696 139.762 202.08 138.695 202.848C137.628 203.616 136.519 204.576 135.367 205.728C134.044 207.008 133.084 208.075 132.487 208.928C131.932 209.739 131.698 210.357 131.783 210.784C131.826 211.211 132.103 211.424 132.615 211.424C133.212 211.424 134.044 211.125 135.111 210.528C136.178 209.931 137.138 209.227 137.991 208.416C138.503 207.989 139.015 207.499 139.527 206.944C140.039 206.389 140.508 205.856 140.935 205.344C141.362 204.832 141.703 204.363 141.959 203.936C142.258 203.467 142.407 203.104 142.407 202.848C142.45 202.08 142.066 201.696 141.255 201.696ZM166.157 203.488C166.029 204.427 165.602 205.429 164.877 206.496C164.151 207.563 163.149 208.587 161.869 209.568C160.546 210.549 159.245 211.253 157.965 211.68C156.727 212.064 155.575 212.277 154.509 212.32C153.783 212.32 153.165 212.235 152.653 212.064C152.183 211.936 151.949 211.595 151.949 211.04C151.991 210.443 152.375 209.973 153.101 209.632C153.869 209.291 154.871 208.949 156.109 208.608C157.005 208.395 157.901 208.16 158.797 207.904C159.693 207.648 160.439 207.392 161.037 207.136C161.378 206.795 161.762 206.304 162.189 205.664C162.615 204.981 162.914 204.405 163.085 203.936C163.213 203.595 163.277 203.189 163.277 202.72C163.277 202.251 162.999 202.016 162.445 202.016C161.847 202.016 161.058 202.272 160.077 202.784C159.095 203.296 158.029 204 156.877 204.896C155.469 206.005 154.231 207.051 153.165 208.032C152.141 209.013 151.01 210.123 149.773 211.36C149.218 211.915 148.599 212.213 147.916 212.256C147.276 212.299 146.935 212.213 146.892 212C146.807 211.829 146.85 211.573 147.02 211.232C147.319 210.592 147.703 209.931 148.172 209.248C148.599 208.523 149.09 207.755 149.645 206.944C149.943 206.517 150.242 206.112 150.541 205.728C150.839 205.301 151.159 204.875 151.501 204.448H151.437C150.967 204.832 150.541 205.216 150.157 205.6C149.773 205.941 149.431 206.24 149.133 206.496C148.791 206.795 148.556 206.88 148.428 206.752C148.3 206.667 148.407 206.453 148.748 206.112C149.261 205.643 149.879 205.088 150.605 204.448C151.373 203.765 152.119 203.125 152.845 202.528C153.997 201.035 155.213 199.499 156.493 197.92C157.773 196.299 159.159 194.635 160.653 192.928C161.549 191.861 162.658 190.603 163.981 189.152C165.346 187.701 166.733 186.272 168.141 184.864C169.591 183.413 170.957 182.091 172.237 180.896C173.559 179.659 174.647 178.741 175.501 178.144C176.354 177.504 177.229 176.928 178.125 176.416C179.063 175.861 180.002 175.584 180.941 175.584C181.794 175.584 182.349 175.819 182.604 176.288C182.903 176.757 183.01 177.291 182.925 177.888C182.797 178.656 182.349 179.552 181.581 180.576C180.813 181.557 179.81 182.645 178.573 183.84C177.378 184.992 176.013 186.229 174.477 187.552C172.983 188.832 171.426 190.133 169.805 191.456C168.823 192.267 167.757 193.099 166.605 193.952C165.495 194.805 164.365 195.68 163.213 196.576C162.061 197.472 160.93 198.368 159.821 199.264C158.711 200.16 157.687 201.035 156.749 201.888C156.45 202.229 156.066 202.741 155.597 203.424C155.127 204.064 154.658 204.704 154.189 205.344C153.634 206.112 153.058 206.923 152.461 207.776L152.525 207.84C153.463 206.859 154.445 205.963 155.469 205.152C156.535 204.299 157.559 203.552 158.541 202.912C159.181 202.485 160.034 202.037 161.101 201.568C162.21 201.099 163.234 200.928 164.173 201.056C164.898 201.141 165.431 201.397 165.773 201.824C166.114 202.208 166.242 202.763 166.157 203.488ZM154.509 211.616C155.149 211.531 155.703 211.403 156.173 211.232C156.685 211.019 157.154 210.784 157.581 210.528C158.733 209.803 159.714 208.907 160.525 207.84C160.141 208.053 159.501 208.288 158.605 208.544C157.751 208.757 157.069 208.928 156.557 209.056C155.405 209.355 154.509 209.653 153.869 209.952C153.229 210.251 152.93 210.613 152.973 211.04C153.015 211.296 153.165 211.467 153.421 211.552C153.719 211.637 154.082 211.659 154.509 211.616ZM157.773 200.224C159.309 198.901 160.631 197.792 161.741 196.896C162.85 195.957 163.831 195.147 164.685 194.464C165.581 193.781 166.37 193.163 167.053 192.608C167.778 192.011 168.503 191.392 169.229 190.752C170.765 189.387 172.237 188.064 173.645 186.784C175.095 185.461 176.375 184.245 177.485 183.136C178.594 181.984 179.49 180.939 180.173 180C180.855 179.061 181.239 178.229 181.325 177.504C181.367 176.693 181.005 176.288 180.237 176.288C179.682 176.288 179.021 176.565 178.253 177.12C177.485 177.632 176.759 178.208 176.077 178.848C174.967 179.915 173.687 181.216 172.237 182.752C170.786 184.245 169.229 185.995 167.565 188C166.413 189.408 165.41 190.624 164.557 191.648C163.703 192.629 162.914 193.568 162.189 194.464C161.506 195.36 160.802 196.256 160.077 197.152C159.394 198.048 158.626 199.072 157.773 200.224ZM171.651 211.616C172.078 211.616 172.803 211.467 173.827 211.168C174.851 210.869 176.067 210.229 177.475 209.248C178.072 208.821 178.712 208.352 179.395 207.84C180.12 207.285 180.782 206.731 181.379 206.176C181.72 205.877 181.955 205.792 182.083 205.92C182.211 206.091 182.04 206.368 181.571 206.752C181.144 207.136 180.504 207.669 179.651 208.352C178.84 209.035 178.136 209.568 177.539 209.952C174.894 211.701 172.483 212.576 170.307 212.576C167.96 212.576 166.83 211.723 166.915 210.016C166.958 208.821 167.598 207.499 168.835 206.048L168.771 205.984C168.686 206.069 168.494 206.24 168.195 206.496C167.939 206.752 167.704 206.965 167.491 207.136C167.192 207.392 166.979 207.456 166.851 207.328C166.766 207.243 166.787 207.136 166.915 207.008C167 206.88 167.107 206.752 167.235 206.624C167.662 206.24 168.046 205.92 168.387 205.664C168.728 205.365 169.134 205.045 169.603 204.704C169.944 204.448 170.392 204.149 170.947 203.808C171.544 203.467 172.142 203.125 172.739 202.784C173.678 202.315 174.616 201.909 175.555 201.568C176.494 201.184 177.39 200.992 178.243 200.992H178.307C179.032 200.992 179.523 201.184 179.779 201.568C180.078 201.909 180.206 202.293 180.163 202.72C180.078 203.573 179.608 204.32 178.755 204.96C177.944 205.6 177.048 206.155 176.067 206.624C175.128 207.093 174.147 207.499 173.123 207.84C172.142 208.181 171.288 208.459 170.563 208.672C170.307 209.184 170.179 209.675 170.179 210.144C170.179 211.125 170.67 211.616 171.651 211.616ZM170.947 207.968C171.587 207.797 172.291 207.563 173.059 207.264C173.87 206.923 174.616 206.517 175.299 206.048C176.11 205.493 176.728 204.917 177.155 204.32C177.624 203.723 177.88 203.189 177.923 202.72C178.008 202.123 177.752 201.824 177.155 201.824C176.6 201.824 175.662 202.443 174.339 203.68C173.827 204.149 173.23 204.832 172.547 205.728C171.864 206.581 171.331 207.328 170.947 207.968ZM184.702 203.168C185.555 202.485 186.323 201.973 187.006 201.632C187.688 201.248 188.371 201.056 189.054 201.056C189.651 201.056 190.056 201.205 190.27 201.504C190.526 201.803 190.654 202.123 190.654 202.464C190.654 202.848 190.526 203.253 190.27 203.68C190.056 204.107 189.736 204.619 189.31 205.216C188.84 205.856 188.307 206.56 187.71 207.328C187.112 208.096 186.643 208.736 186.302 209.248L186.366 209.312C187.134 208.672 188.03 207.925 189.054 207.072C190.078 206.219 191.144 205.365 192.254 204.512C193.363 203.659 194.558 202.869 195.838 202.144C197.118 201.419 198.227 201.056 199.166 201.056C199.976 201.056 200.531 201.227 200.83 201.568C201.171 201.909 201.299 202.357 201.214 202.912C201.128 203.424 200.83 204 200.318 204.64C199.806 205.28 199.272 205.92 198.718 206.56C198.163 207.2 197.715 207.733 197.374 208.16C197.032 208.587 196.712 208.992 196.414 209.376L196.478 209.44C197.203 208.8 198.099 208.032 199.166 207.136C200.275 206.24 201.384 205.365 202.494 204.512C203.603 203.659 204.798 202.869 206.078 202.144C207.358 201.419 208.488 201.056 209.47 201.056C210.195 201.056 210.728 201.227 211.07 201.568C211.411 201.867 211.539 202.272 211.454 202.784C211.368 203.381 211.048 204.021 210.494 204.704C209.939 205.387 209.406 206.048 208.894 206.688C208.382 207.285 207.955 207.84 207.614 208.352C207.272 208.821 206.995 209.205 206.782 209.504C206.312 210.229 206.227 210.699 206.526 210.912C206.696 211.04 206.931 211.061 207.23 210.976C207.528 210.891 207.806 210.784 208.062 210.656C208.446 210.443 208.872 210.208 209.342 209.952C209.811 209.653 210.408 209.227 211.134 208.672C211.688 208.245 212.243 207.797 212.798 207.328C213.395 206.816 213.864 206.389 214.206 206.048C214.632 205.664 214.91 205.536 215.038 205.664C215.123 205.792 214.952 206.069 214.526 206.496C214.227 206.795 213.672 207.307 212.862 208.032C212.094 208.715 211.368 209.312 210.686 209.824C210.344 210.08 209.939 210.357 209.47 210.656C209.043 210.955 208.574 211.232 208.062 211.488C207.55 211.744 207.016 211.957 206.462 212.128C205.95 212.299 205.438 212.384 204.926 212.384C203.56 212.384 202.92 211.829 203.006 210.72C203.048 209.995 203.368 209.248 203.966 208.48C204.563 207.669 205.139 206.923 205.694 206.24C206.163 205.643 206.611 205.088 207.038 204.576C207.507 204.064 207.955 203.573 208.382 203.104C208.51 202.933 208.595 202.763 208.638 202.592C208.68 202.421 208.616 202.293 208.446 202.208C208.275 202.123 208.04 202.123 207.742 202.208C207.443 202.293 207.123 202.421 206.782 202.592C206.184 202.891 205.459 203.317 204.606 203.872C203.752 204.384 202.814 205.045 201.79 205.856C201.064 206.411 200.424 206.923 199.87 207.392C199.315 207.861 198.76 208.331 198.206 208.8C197.651 209.227 197.075 209.675 196.478 210.144C195.923 210.613 195.304 211.125 194.622 211.68C194.11 212.064 193.555 212.256 192.958 212.256C192.446 212.256 192.126 212.192 191.998 212.064C191.87 211.936 191.912 211.659 192.126 211.232C192.467 210.549 192.958 209.739 193.598 208.8C194.28 207.819 194.92 206.965 195.518 206.24C196.072 205.557 196.606 204.96 197.118 204.448C197.63 203.893 197.992 203.445 198.206 203.104C198.334 202.933 198.398 202.763 198.398 202.592C198.44 202.421 198.355 202.293 198.142 202.208C197.843 202.123 197.31 202.251 196.542 202.592C195.944 202.891 195.198 203.317 194.302 203.872C193.448 204.427 192.531 205.088 191.55 205.856C190.824 206.411 190.184 206.923 189.63 207.392C189.075 207.861 188.52 208.331 187.966 208.8C187.411 209.227 186.835 209.675 186.238 210.144C185.683 210.613 185.064 211.125 184.382 211.68C183.87 212.064 183.315 212.256 182.718 212.256C182.248 212.256 181.928 212.192 181.758 212.064C181.587 211.979 181.63 211.701 181.886 211.232C182.099 210.805 182.504 210.165 183.102 209.312C183.699 208.416 184.232 207.627 184.702 206.944C185.171 206.261 185.619 205.664 186.046 205.152C186.515 204.597 186.92 204.085 187.262 203.616C187.688 203.061 187.838 202.699 187.71 202.528C187.539 202.315 187.219 202.336 186.75 202.592C186.366 202.805 185.939 203.061 185.47 203.36C185.043 203.659 184.638 203.979 184.254 204.32C183.827 204.661 183.379 205.045 182.91 205.472C182.44 205.899 181.971 206.325 181.502 206.752C180.904 207.264 180.541 207.456 180.413 207.328C180.328 207.2 180.648 206.795 181.373 206.112C181.758 205.771 182.248 205.323 182.846 204.768C183.486 204.171 184.104 203.637 184.702 203.168ZM226.668 203.488C227.436 202.677 228.097 202.08 228.652 201.696C229.249 201.269 229.804 201.056 230.316 201.056C230.998 201.013 231.382 201.077 231.468 201.248C231.596 201.419 231.489 201.696 231.148 202.08C230.721 202.549 230.188 203.168 229.548 203.936C228.908 204.661 228.246 205.451 227.564 206.304C227.137 206.816 226.732 207.349 226.348 207.904C225.964 208.416 225.622 208.928 225.324 209.44C224.897 210.208 224.833 210.699 225.132 210.912C225.302 211.04 225.516 211.061 225.772 210.976C226.07 210.891 226.348 210.784 226.604 210.656C226.945 210.485 227.372 210.229 227.884 209.888C228.438 209.504 228.972 209.099 229.484 208.672C230.166 208.117 230.764 207.627 231.276 207.2C231.788 206.773 232.214 206.389 232.556 206.048C232.769 205.877 232.94 205.749 233.068 205.664C233.238 205.536 233.366 205.515 233.452 205.6C233.58 205.728 233.302 206.112 232.62 206.752C232.193 207.136 231.638 207.627 230.956 208.224C230.273 208.821 229.633 209.355 229.036 209.824C228.396 210.336 227.585 210.891 226.604 211.488C225.622 212.085 224.598 212.384 223.532 212.384C222.934 212.384 222.486 212.256 222.188 212C221.889 211.744 221.718 211.424 221.676 211.04C221.633 210.699 221.697 210.315 221.868 209.888C222.038 209.461 222.273 209.077 222.572 208.736L222.508 208.672C222.081 209.056 221.59 209.461 221.036 209.888C220.481 210.272 219.884 210.656 219.244 211.04C218.646 211.381 218.006 211.68 217.324 211.936C216.684 212.192 216.065 212.341 215.468 212.384C214.742 212.427 214.102 212.277 213.547 211.936C212.95 211.552 212.715 210.848 212.843 209.824C212.929 209.355 213.099 208.864 213.355 208.352C213.611 207.797 214.038 207.179 214.636 206.496L214.572 206.432C214.486 206.517 214.38 206.624 214.252 206.752C214.123 206.88 213.953 207.029 213.739 207.2C213.441 207.413 213.249 207.477 213.163 207.392C213.035 207.221 213.334 206.816 214.059 206.176C214.145 206.091 214.401 205.877 214.828 205.536C215.254 205.152 215.638 204.853 215.98 204.64C216.321 204.427 216.748 204.171 217.26 203.872C217.772 203.531 218.326 203.189 218.924 202.848C220.161 202.208 221.313 201.717 222.38 201.376C223.489 201.035 224.47 200.928 225.324 201.056C225.964 201.141 226.39 201.44 226.604 201.952C226.86 202.421 226.881 202.933 226.668 203.488ZM225.068 201.696C224.428 201.696 223.574 202.08 222.508 202.848C221.441 203.616 220.332 204.576 219.18 205.728C217.857 207.008 216.897 208.075 216.299 208.928C215.745 209.739 215.51 210.357 215.596 210.784C215.638 211.211 215.916 211.424 216.428 211.424C217.025 211.424 217.857 211.125 218.924 210.528C219.99 209.931 220.95 209.227 221.804 208.416C222.316 207.989 222.828 207.499 223.34 206.944C223.852 206.389 224.321 205.856 224.748 205.344C225.174 204.832 225.516 204.363 225.772 203.936C226.07 203.467 226.22 203.104 226.22 202.848C226.262 202.08 225.878 201.696 225.068 201.696Z" fill="#FCFCFC"/>
</g>
<defs>
<clipPath id="clip0_104_815">
<rect width="276" height="276" fill="white"/>
</clipPath>
</defs>
</svg>
